<?xml version="1.0" encoding="UTF-8"?>
<!-- Created with Inkscape (http://www.inkscape.org/) -->
<svg id="svg4134" width="500" height="360" version="1.1" xmlns="http://www.w3.org/2000/svg" xmlns:cc="http://creativecommons.org/ns#" xmlns:dc="http://purl.org/dc/elements/1.1/" xmlns:rdf="http://www.w3.org/1999/02/22-rdf-syntax-ns#">
 <metadata id="metadata4139">
  <rdf:RDF>
   <cc:Work rdf:about="">
    <dc:format>image/svg+xml</dc:format>
    <dc:type rdf:resource="http://purl.org/dc/dcmitype/StillImage"/>
   </cc:Work>
  </rdf:RDF>
 </metadata>
 <g id="layer1" transform="translate(-67.68022 -573.5499)">
  <rect id="rect4142" x="67.68022" y="573.5499" width="500" height="360" style="fill:#d4000e"/>
  <path id="_259880024-8-7-64" class="fil0" d="m188.1737 746.641c0.55366-0.0411 1.65871 0.14717 3.31642 0.56523 1.65751 0.41761 2.97399 0.16678 3.95005-0.75217 0.1097-0.67824 0.28248-1.50471 0.51878-2.47959 0.23584-0.9747 0.36267-1.49502 0.3805-1.56096 0.29918-1.12357 0.5356-1.96826 0.7106-2.53457 0.17437-0.5666 0.35946-1.08355 0.55433-1.55047l5.80003 1.3324c0.32014 0.0385 0.57952 0.0834 0.77759 0.13625 0.41836 0.11131 0.79781 0.23657 1.13808 0.37375 1.2146 0.48873 1.88773 0.75069 2.01941 0.78587 0.52846 0.14109 1.01545 0.19376 1.46085 0.15913 0.44585-0.0348 0.89768-0.20324 1.35526-0.50577 0.13973-0.0807 0.22421-0.17614 0.25356-0.28602 0.0468-0.17676-0.0501-0.39044-0.28913-0.64309-0.32723-0.27563-0.5403-0.4508-0.63852-0.52366-3.74339-0.99699-6.20455-1.65259-7.38222-1.96625-1.17831-0.31395-2.48339-0.66127-3.91432-1.04233l2.7587-7.96778c0.079-0.12066 0.15096-0.30182 0.2153-0.54389 0.13478-0.50651 0.0791-1.00498-0.16717-1.49478-0.0755-0.16176-0.21074-0.36327-0.40565-0.60344l-5.39104-2.07278c-0.2908-0.14836-0.55737-0.25439-0.79943-0.31873-0.46253-0.12327-0.93199-0.1305-1.40882-0.0215-0.0722 4e-3 -0.16377 0.0389-0.27527 0.10391-1.19026 4.47019-1.91037 7.17294-2.15953 8.10902-0.24934 0.93562-0.47968 1.80011-0.6906 2.5933-0.24393 0.0293-0.479 0.0255-0.70514-0.0113-0.22568-0.0369-0.50376-0.0989-0.83415-0.1872-0.15438-0.0408-0.43215-0.12655-0.8341-0.25683-0.40103-0.13065-0.71224-0.22527-0.93225-0.28439-0.13214-0.035-0.29449-0.0663-0.48765-0.0941-0.19319-0.0278-0.33348-0.0539-0.42209-0.0772-0.57244-0.1526-1.07411-0.0383-1.50556 0.34166-0.12927 0.13114-0.27851 0.33896-0.44882 0.62346 0.31371 0.41427 0.70263 0.74732 1.16572 1.00062 0.4631 0.2533 1.00323 0.46159 1.62011 0.62554 0.52846 0.1411 1.07102 0.25039 1.62832 0.32816 0.55666 0.0775 0.9482 0.13428 1.17497 0.17128l-2.00575 7.53138c-0.13685 0.24681-0.23432 0.47951-0.29281 0.6998-0.17043 0.63837-0.0273 1.20803 0.42978 1.70676 0.14695 0.1569 0.4008 0.35431 0.76177 0.59162zm1.91522-1.61224c-0.79101-0.30508-1.23682-0.80075-1.33689-1.48828-0.0353-0.22154-8e-3 -0.54412 0.0812-0.96832 0.0807-0.21462 0.1546-0.42504 0.22123-0.63108 0.0664-0.20648 0.14128-0.46366 0.22325-0.7721 0.11131-0.41837 0.22441-0.84165 0.33861-1.27166 0.11453-0.4291 0.21579-0.85572 0.30533-1.27993 0.0942-0.35323 0.20026-0.70734 0.31921-1.06485 0.11877-0.35797 0.26156-0.71518 0.42728-1.07173 2.20144 0.58649 3.53949 0.94273 4.01275 1.06924 0.47355 0.12588 0.91951 0.24447 1.33805 0.35623l-1.94027 6.48685c-0.31671 0.83609-1.09586 1.14707-2.33582 0.93445-0.54025-0.0965-1.09169-0.196-1.65389-0.29877zm1.15984-10.72762-0.14589-0.25118c0.18967-0.44488 0.57102-1.65761 1.14635-3.63909 0.57487-1.98129 1.21361-3.53847 1.91623-4.67154 0.5237 0.0686 1.06134 0.17607 1.61201 0.32284 0.70459 0.1876 1.305 0.41273 1.80135 0.67431 0.49587 0.26176 0.93985 0.63369 1.33048 1.11477l-2.25709 7.67683c-0.56392-9e-3 -1.13225-0.066-1.705-0.1715-0.57323-0.10538-1.13558-0.23183-1.68625-0.37859-0.48413-0.12866-0.88302-0.24693-1.19682-0.35373-0.31334-0.10699-0.58546-0.21509-0.81536-0.32312z" style="fill:#fcd116;stroke-width:.3;stroke:#fcd116"/>
  <path id="_263149024-3-0-9-5" class="fil0" d="m310.9791 643.766c0.0677 0.076 0.12908 0.21301 0.18263 0.41063 0.13181 0.48401 0.0355 0.9767-0.2885 1.47795-0.32385 0.50169-0.75123 0.77729-1.2806 0.82668-0.91745-0.24572-1.91103-0.31832-2.98173-0.21621-1.06985 0.1028-2.22089 0.32171-3.45203 0.65677-0.83569 0.22717-1.69263 0.50768-2.56992 0.84113-0.28031 0.0997-0.63072 0.24233-1.05289 0.42793-0.0981 0.59385-0.16548 1.08435-0.20139 1.47263-0.0965 1.20655-0.0662 2.2731 0.0913 3.19838 0.0717 0.26406 0.0438 0.50775-0.0844 0.73126-0.128 0.22397-0.2908 0.36276-0.48883 0.41657-0.37357 0.10163-0.62633-0.089-0.75798-0.57256-1.07148-3.93632-1.86374-6.89135-2.37742-8.86533-0.51302-1.97372-1.04393-4.03156-1.59119-6.17358-0.54726-2.14204-0.81063-3.21591-0.7881-3.22192l-0.30594-0.34165-2.08803 2.48104c-0.16191 0.1852-0.34202 0.30504-0.53988 0.3593-0.24155 0.0657-0.46381 0.0316-0.6657-0.10216-0.20145-0.13401-0.33232-0.31121-0.39241-0.53114-0.1137-0.41752 0.0953-0.73464 0.62726-0.94933 1.44384-1.29094 2.75192-2.86337 3.9238-4.71712 0.39629-0.62748 0.84662-1.44659 1.35036-2.45761 0.17258-0.2358 0.38928-0.43648 0.65118-0.60195 0.26155-0.16638 0.51369-0.28162 0.75615-0.34771 0.61557-0.16753 1.35434-0.1441 2.2152 0.0702 0.58345 0.14801 1.28273 0.41823 2.09831 0.81048 0.40119 0.17411 0.65019 0.43751 0.74596 0.78901 0.10163 0.37356 8e-3 0.89559-0.28273 1.56488-0.23824 0.51349-0.46545 1.02407-0.68162 1.53172 0.11615 0.25177 0.2793 0.39612 0.49006 0.43331 0.21121 0.0372 0.45951 0.0163 0.74518-0.0611 0.21992-0.0601 0.44232-0.13235 0.66721-0.21676 0.22484-0.0845 0.44398-0.16861 0.65783-0.25013 0.17643-0.0482 0.30033-0.0701 0.37218-0.066 0.23985-0.15963 0.50265-0.27869 0.78812-0.35656 0.30821-0.0834 0.60917-0.10645 0.90282-0.0681 0.0937-2e-3 0.20833 0.026 0.34158 0.0842-0.0397 0.45949-0.25054 0.83583-0.63178 1.12816-0.38039 0.29308-0.85702 0.51704-1.42863 0.67251-0.52767 0.14332-1.07018 0.23211-1.62817 0.26609-0.18198 0.0255-0.44147 0.0252-0.77935-4.7e-4 -0.27814 0.1934-0.36906 0.46649-0.27305 0.81846 0.22119 0.55378 0.43955 1.09649 0.65561 1.62793l4.15599-1.13093c0.26557 0.0217 0.47468 0.0952 0.62636 0.21923 0.0341 0.0381 0.0769 0.10888 0.1286 0.21319-0.23968 0.41894-0.52502 0.73909-0.8546 0.95878-0.32959 0.21967-0.73678 0.3951-1.22077 0.52692-0.28566 0.0774-0.66421 0.16295-1.13443 0.2557-0.47129 0.0927-0.71736 0.14213-0.73942 0.14795-0.26407 0.0717-0.45874 0.13644-0.58451 0.19412l0.64609 2.37485 4.94706-1.34627c0.33414 0.0984 0.53373 0.26824 0.59947 0.50978 0.0475 0.17616 0.0297 0.37055-0.0541 0.58175-0.0319 0.0561-0.0881 0.15396-0.16815 0.29352l-5.14558 1.40026 0.55631 2.825c0.69754 0.0461 2.26262-0.19099 4.6952-0.71133 1.13956-0.23918 2.10486-0.33647 2.8963-0.29205zm-20.34332-2.11595c-0.0441 0.53199-0.27046 1.08897-0.67866 1.67297-1.13808 1.63212-1.72811 2.50087-1.77035 2.60688 0.06 0.47987 0.17259 1.06898 0.33955 1.7677 0.16631 0.69845 0.26158 1.09163 0.28581 1.17952 0.22734 0.83613 0.54169 1.88387 0.94384 3.14393 0.40207 1.26117 0.63302 2.00071 0.69311 2.22064 0.0458 0.0822 0.089 0.15284 0.1285 0.21323 0.0176 0.0662 0.033 0.12099 0.0449 0.1645 0.0838 0.30805 0.0335 0.55818-0.15024 0.74966-0.0916 0.0959-0.22637 0.16792-0.40189 0.21572-0.3517 0.0953-0.69938-0.0103-1.04317-0.31839l-2.17189-8.76169c-0.92312-0.52795-1.98776-0.97044-3.19466-1.32664-0.38392-0.10828-0.88942-0.23078-1.5168-0.36672-0.074-0.0978-0.13718-0.19906-0.18921-0.30323-0.0517-0.10326-0.0925-0.21094-0.12246-0.32041-0.1256-0.4621-5.2e-4 -0.9564 0.37545-1.4837 0.56429-0.79125 1.12521-1.59336 1.68321-2.40652-0.40523-0.36219-1.0789-0.58016-2.02034-0.65472-1.20718-0.0967-1.96661-0.19675-2.27819-0.30116l-0.0717-1.04322c0.86441-1.25085 1.70658-2.75517 2.52724-4.51377 0.27007-0.56955 0.59237-1.2949 0.96641-2.17585-0.0537-0.45798 0.0403-0.71961 0.28182-0.78535 0.13205-0.0358 0.31829-4e-3 0.55785 0.0958 0.0557 0.0325 0.15395 0.0881 0.29416 0.16841 0.41329 0.21806 0.65581 0.45912 0.72802 0.723 0.0953 0.35169-0.0363 0.77751-0.39663 1.27709-0.48559 0.55715-0.80703 0.93987-0.96292 1.14761-0.11651 0.26765-0.42996 0.71937-0.94223 1.35439-0.83033 1.02857-1.15192 1.88438-0.96646 2.56597l3.3451 0.57744 1.60198-1.92371c0.0884-0.28435 0.0999-0.54669 0.0339-0.78872-0.0601-0.21991-0.23302-0.48571-0.5189-0.79781-0.2857-0.31164-0.47102-0.53886-0.55668-0.68086 0.92546-0.15701 1.66744 0.0538 2.22667 0.63419 0.1699 0.18941 0.35056 0.50676 0.54241 0.9503-0.75868 1.55258-1.74082 3.10717-2.9466 4.66332-0.40381 0.51151-0.95237 1.14488-1.64409 1.89998-0.0379 0.29347-0.0391 0.50654-3e-3 0.63858 0.12603 0.46191 0.56809 0.74262 1.3277 0.84309 0.43762 0.0461 1.05139 0.0445 1.84114-5e-3 0.63763-0.17339 1.10617-0.5551 1.40645-1.14439 0.29963-0.58959 0.36029-1.21386 0.18089-1.87403-0.11956-0.43959-0.31217-0.80043-0.57828-1.08233 0.70796-4e-3 1.37909 0.25076 2.01391 0.76258 0.21465 0.17804 0.46592 0.4522 0.75562 0.82173zm2.96465 6.2077c0.37348 0.15834 0.61709 0.44624 0.73099 0.86422 0.0836 0.30758 0.069 0.60057-0.044 0.87952-0.11314 0.27851-0.30146 0.45374-0.56551 0.5255-0.17553 0.0478-0.36653 0.0408-0.57237-0.0207-0.54982-0.37009-0.96209-0.67148-1.23798-0.90316-0.87691-0.70627-1.37852-1.29005-1.50389-1.75171-0.0421-0.15392-0.0445-0.29485-9e-3 -0.42323zm-8.20329 0.319c-0.0601 1.07955-0.30953 2.24602-0.74799 3.49875-0.14622 0.41743-0.35947 0.93612-0.63952 1.55545-0.0817 0.30563-0.29903 0.50644-0.65101 0.60241-0.24217 0.0655-0.49672 0.0409-0.76435-0.0757-0.26745-0.11611-0.43462-0.29492-0.50053-0.53693-0.0417-0.1541-0.0206-0.33652 0.0635-0.54836 0.50464-1.01139 1.1985-2.0618 2.08237-3.15318 0.27993-0.3594 0.66631-0.80692 1.15756-1.34246zm14.03987-16.36117c0.23825-0.5135 0.29786-0.99067 0.17786-1.43007-0.11955-0.43959-0.36831-0.76739-0.74575-0.98362-0.37747-0.21622-0.8196-0.25508-1.3252-0.1176-0.0874 0.024-0.23614 0.088-0.44398 0.19204l-3.77973 4.85382 1.70819 0.81043c0.23987-0.15963 0.54386-0.30143 0.91118-0.42485 0.36838-0.12344 0.77223-0.24588 1.21182-0.36545 0.37401-0.1018 0.72979-0.20408 1.06752-0.30753 0.33782-0.10453 0.68956-0.2648 1.05564-0.48231zm0.0169 3.18412c-0.20036-0.0405-0.41637-0.0525-0.64795-0.0366s-0.45733 0.054-0.67744 0.11362c-0.26408 0.0717-0.71926 0.24287-1.36608 0.51345-0.64681 0.27057-1.06895 0.4328-1.26693 0.48678-0.1 0.23912-0.1425 0.51635-0.12756 0.83127 0.0146 0.31509 0.0518 0.58206 0.11143 0.80218 0.0301 0.10995 0.06 0.21996 0.0901 0.32991 5e-3 0.0222 0.0289 0.0626 0.0688 0.12283 0.26577 0.0222 0.50611 0.0159 0.72101-0.0187 0.21471-0.0352 0.48692-0.0974 0.81698-0.1871 0.17599-0.048 0.46438-0.13822 0.86525-0.27061 0.40067-0.13285 0.69992-0.22644 0.89795-0.28027 0.13205-0.0358 0.29467-0.0684 0.4871-0.0969 0.19283-0.0289 0.33345-0.0554 0.42153-0.0792 0.0341-0.22228 0.0373-0.47072 9e-3 -0.74689-0.028-0.27553-0.0748-0.53438-0.1403-0.77657-0.0479-0.17599-0.10679-0.3486-0.17687-0.51874-0.0115-0.0436-0.0403-0.10685-0.0864-0.18844zm0.77145 3.61565-3.56293 0.96941c-0.39377 0.20176-0.50686 0.61048-0.33935 1.22606 0.0722 0.26389 0.15147 0.49032 0.2382 0.67916 0.0866 0.1889 0.22199 0.44718 0.40612 0.77533l3.70607-1.22135zm1.27472 3.90431c-0.29759 0.0339-0.53794 0.0635-0.7193 0.0892-0.70562 0.098-1.24586 0.19759-1.61943 0.29919-0.57164 0.15538-1.03361 0.34633-1.38554 0.57116-0.35209 0.22571-0.50805 0.4983-0.46815 0.81841l0.84438 2.3204 3.90367-1.27497c0.0165-0.28739-5e-3 -0.62418-0.0617-1.01005-0.0583-0.38595-0.12284-0.71038-0.19459-0.97445-0.0538-0.19802-0.12134-0.40376-0.20357-0.61783-0.0185-0.0658-0.0497-0.13968-0.0957-0.22186z" style="fill:#fcd116;stroke-width:.3;stroke:#fcd116"/>
  <path id="_259880024-8-7-6-7" class="fil0" d="m209.9313 707.7691 3.18199-0.23082c0.64086-1.85647 1.62024-3.72052 2.93831-5.59369 0.79039-1.12371 2.08032-2.72005 3.86883-4.78877l2.01676 1.74359c-0.53651 0.62082-1.07303 1.24163-1.60963 1.86197-0.53652 0.62081-1.08161 1.23379-1.63564 1.8395-0.71538 0.82759-1.28747 1.50708-1.71762 2.03922-0.42963 0.53204-0.87022 1.14598-1.32039 1.84104 0.64384 0.19548 1.28717 0.25366 1.9271 0.1751 0.20849-0.0312 0.48515-0.1082 0.8312-0.23011 1.39637-2.13735 2.16013-3.29944 2.29176-3.48636 0.86046-1.27444 1.63352-2.30798 2.31957-3.10121l2.6586 2.56983c0.14241 0.18304 0.29116 0.34226 0.44654 0.47662 0.29312 0.2531 0.58406 0.4214 0.87244 0.50544 0.28895 0.0845 0.51517 0.0313 0.67942-0.15805 0.10453-0.12091 0.1719-0.30318 0.20236-0.5479-0.15425-0.34468-0.38581-0.69519-0.69439-1.05206-0.30867-0.35736-0.60909-0.66269-0.90231-0.91627-0.18984-0.16417-0.48175-0.40097-0.87546-0.71148-0.39429-0.31088-0.69487-0.556-0.90213-0.73478-0.24125-0.20869-0.42315-0.38093-0.54639-0.5176 0.99841-1.1547 2.2272-2.36686 3.68596-3.63592 0.48621-0.42334 1.11884-0.94577 1.89774-1.56825 0.21334-0.17697 0.34227-0.29116 0.3867-0.34304 0.35812-0.41414 0.36467-0.76998 0.0197-1.06751-0.31027-0.26878-0.77723-0.35573-1.40014-0.26196-0.39966 0.28743-0.72305 0.55731-0.97112 0.80983-0.24808 0.25252-0.55893 0.59364-0.93178 1.02472-0.19348 0.2242-0.47887 0.57234-0.85722 1.04412-0.37739 0.47159-0.66336 0.81934-0.85685 1.04354-0.34301 0.39661-0.64281 0.71751-0.89945 0.96218-0.25704 0.24527-0.55431 0.49244-0.89097 0.74337-0.34701 0.12211-0.71888 0.0114-1.11491-0.33125-0.15527-0.13387-0.33057-0.32347-0.52569-0.56782-0.1956-0.24426-0.36578-0.47398-0.5106-0.68964 1.72889-1.99981 3.79154-4.07197 6.18824-6.21753 0.78895-0.70369 1.80876-1.56925 3.05886-2.59707 0.37933-0.33456 0.47457-0.58401 0.28482-0.74769-0.13784-0.11926-0.35764-0.19627-0.65887-0.23114-0.30168-0.034-0.59027-0.0661-0.86758-0.0942-1.09823 0.88754-2.21977 1.90606-3.36463 3.05554-0.37469 0.39884-0.8388 0.90108-1.39284 1.50679-0.0754-0.36625-0.23424-0.72256-0.47735-1.06778-0.24329-0.34619-0.52843-0.66056-0.85612-0.94395-0.13834-0.11915-0.28042-0.24208-0.42675-0.36868-0.14632-0.1266-0.30472-0.24832-0.47519-0.36514l2.2806-2.63768c-0.0934-0.17114-0.18331-0.29382-0.26917-0.36816-0.24173-0.20859-0.51633-0.2126-0.82505-0.0133-0.30797 0.20064-0.63375 0.49907-0.97687 0.8952-0.23839 0.27618-0.39481 0.45698-0.46905 0.54333-0.0853 0.16775-0.14982 0.27777-0.19483 0.32926-0.1935 0.22422-0.48859 0.16455-0.8851-0.17797-0.20678-0.17888-0.36215-0.31322-0.46555-0.40266-0.12081-0.10405-0.24124-0.20868-0.36215-0.31321-0.11848-0.0719-0.27486-0.1173-0.4705-0.13539-0.26708 0.10025-0.45291 0.21067-0.55706 0.33101-0.19397 0.22429-0.20987 0.50475-0.0485 0.83999 0.16201 0.33564 0.41507 0.65281 0.7597 0.95093 0.1039 0.0893 0.20726 0.17879 0.31065 0.26821 0.15063 0.0696 0.25169 0.12689 0.30319 0.17189-0.2748 0.21366-0.59644 0.51529-0.96415 0.90624-0.36752 0.38941-0.55854 0.59307-0.57364 0.61059-0.44717 0.51694-0.8159 0.99686-1.10704 1.4379-0.0596 0.0689-0.11692 0.16998-0.17189 0.30318 0.4363 0.22639 0.82836 0.28697 1.1765 0.18069 0.34775-0.10565 0.66307-0.32232 0.94649-0.65001 0.4969-0.7148 0.98695-1.42123 1.46934-2.11813 0.0887 0.10638 0.18482 0.20476 0.2882 0.2942 0.10391 0.0893 0.19822 0.17104 0.28466 0.24575 0.60329 0.52141 1.23185 0.94458 1.88537 1.26804 0.10116 0.0578 0.25067 0.11154 0.44814 0.16185-0.0953 0.24898-0.23731 0.5182-0.42625 0.8062-0.18931 0.28856-0.38095 0.545-0.57454 0.76872-0.38746 0.4485-0.86972 0.9197-1.44816 1.4144-1.01933 0.86547-1.55165 1.32449-1.59618 1.37589l-5.74068-4.96289c0.17373-0.27096 0.40181-0.58672 0.68192-0.94636 0.28157-0.35992 0.54091-0.67734 0.77941-0.95305 0.62596-0.72421 1.30965-1.42771 2.05175-2.11213 0.22612-0.22662 0.53736-0.49962 0.93469-0.81919 0.10638-0.0887 0.40108-0.31578 0.88289-0.6826 0.48246-0.36594 0.81255-0.65268 0.99143-0.85946 0.34302-0.39661 0.52314-0.81325 0.53965-1.2508-0.51343-0.17255-0.95717-0.16493-1.33123 0.0238-0.37392 0.18908-0.73975 0.49041-1.0974 0.90444-0.14906 0.17232-0.29756 0.35254-0.4455 0.54068s-0.29635 0.36885-0.4454 0.54117c-0.11916 0.13833-0.21707 0.23436-0.29372 0.2881-0.2292 0.40425-0.48203 0.4877-0.75773 0.24922-0.10342-0.0894-0.2156-0.23882-0.33574-0.44882-0.11995-0.20902-0.2068-0.35187-0.26159-0.42883-0.10058-0.0575-0.22027-0.14561-0.35813-0.26486-0.22429-0.19396-0.32002-0.40476-0.28833-0.63317 0.0315-0.2289 0.15961-0.47226 0.38291-0.73093 0.11972-0.13796 0.46814-0.45388 1.04608-0.94848 0.22844-0.19448 0.42386-0.38598 0.58802-0.57581 0.19705-0.40193 0.2009-0.68501 0.0112-0.84869-0.20677-0.17887-0.55647-0.21021-1.04897-0.0936-0.49213 0.11611-0.83561 0.28663-1.02919 0.51035l-0.91775 1.3755c-0.20906 0.24182-0.45944 0.23603-0.75267-0.0176-0.052-0.0449-0.16071-0.15384-0.32651-0.32827-0.16606-0.17335-0.3008-0.30475-0.40467-0.39409-0.22382-0.19406-0.43257-0.28378-0.6254-0.26983-0.26521 0.13254-0.43485 0.24122-0.50958 0.32767-0.25309 0.29312-0.10485 0.77539 0.44469 1.44632 0.54953 0.67092 0.83389 1.02957 0.85374 1.07681-0.36696 0.28548-0.68669 0.55865-0.95833 0.82134-0.27127 0.2621-0.56389 0.57356-0.87711 0.9357-0.17876 0.20726-0.3315 0.38382-0.4581 0.53015-0.12652 0.1468-0.21899 0.27034-0.27582 0.37132 0.62856 0.42314 1.2222 0.37178 1.7821-0.15337 0.55932-0.52553 1.08763-1.04041 1.58389-1.54498 0.31672-0.0875 0.69929 0.0622 1.14778 0.44966 0.1548 0.13395 0.31673 0.30412 0.48523 0.51008 0.1684 0.2055 0.28973 0.37064 0.3633 0.49454l-6.19128 6.84797-2.01724-1.74351c0.0424-0.0846 0.11609-0.18687 0.22024-0.30719 0.19349-0.22421 0.51265-0.49777 0.95834-0.82136 0.44481-0.3229 0.71953-0.54457 0.82407-0.66548 0.25312-0.29313 0.39054-0.62614 0.4123-0.99901-0.57008-0.28174-1.08726-0.28506-1.55221-8e-3 -0.46467 0.27568-0.95708 0.7158-1.47898 1.31918-0.2234 0.25818-0.3802 0.43955-0.46963 0.54293l-1.08626-0.93868c-0.41432-0.14797-0.74072-0.0841-0.97913 0.19202-0.19387 0.22478-0.26946 0.52052-0.22624 0.88961 0.0424 0.36774 0.19373 0.66436 0.45235 0.88766 0.13737 0.11936 0.29656 0.19678 0.477 0.2319-0.16482 0.40009-0.52662 0.92277-1.08559 1.56956-0.55858 0.64624-0.94322 1.19548-1.15314 1.64659 0.45381 0.24148 0.85317 0.28559 1.19727 0.13099 0.3442-0.15416 0.70278-0.4465 1.07562-0.87758 0.13386-0.15527 0.2683-0.31016 0.40265-0.46555 0.13348-0.15469 0.25142-0.30933 0.35373-0.46189 0.19397-0.22431 0.34365-0.3807 0.45062-0.46898l2.4195 1.27854-3.52955 3.45514c-0.0259 0.30899 0.0469 0.53787 0.21917 0.68694 0.12091 0.10453 0.27042 0.15829 0.44853 0.16129 0.0485 0.0127 0.13653-2e-3 0.26331-0.043 0.62946-0.44959 1.2206-0.93325 1.77265-1.44981 0.55208-0.51657 1.11145-1.10278 1.67788-1.75758 0.49161-0.56883 1.09391-1.29088 1.80527-2.16683 0.71243-0.87565 1.07567-1.32239 1.09038-1.33933l0.71282-0.19723 5.58541 4.82902-4.15805 4.8097c0.0707-0.36097 0.0346-0.68538-0.10723-0.97378-0.14169-0.2885-0.35108-0.55209-0.62679-0.79059-0.12082-0.10404-0.33081-0.27126-0.63008-0.49958-0.29928-0.22834-0.51813-0.40231-0.65598-0.52155-0.18984-0.16416-0.32033-0.29188-0.39119-0.38422 0.238-0.27561 0.65308-0.62474 1.24425-1.04724 0.59166-0.42257 0.97633-0.73762 1.1557-0.9445 0.19348-0.22421 0.31887-0.38683 0.37627-0.48741 0.0696-0.15064 0.135-0.36562 0.19577-0.6449-0.51568-0.20421-0.96961-0.22002-1.36066-0.0466-0.39096 0.17392-0.78772 0.49383-1.19037 0.95937-0.22378 0.25878-0.43088 0.51574-0.62251 0.77217-0.19173 0.25595-0.38281 0.51278-0.57406 0.76863l-1.5518-1.34133c-0.309-0.0258-0.53776 0.0474-0.68682 0.21974-0.17887 0.20679-0.20647 0.49154-0.0833 0.85439 0.12313 0.36235 0.33136 0.67082 0.62402 0.92402 0.22421 0.19349 0.42521 0.29226 0.60332 0.29525-0.0626 0.24704-0.22826 0.52592-0.49656 0.8361-0.16367 0.18973-0.34017 0.37549-0.52912 0.55917-0.18846 0.18358-0.38117 0.37104-0.57697 0.56311-0.28293 0.3276-0.45004 0.64237-0.50112 0.9453-0.0503 0.30226 0.067 0.63721 0.352 1.00424 0.44342-0.12908 0.82861-0.38305 1.15655-0.76213 0.17876-0.20726 0.42594-0.58899 0.74056-1.14498 0.31517-0.5556 0.53205-0.90278 0.65169-1.0412 0.24674 0.0637 0.44645 0.14565 0.59949 0.24786 0.15247 0.10182 0.3411 0.24966 0.5654 0.44363 0.32992 0.31506 0.57237 0.54005 0.72765 0.67392 0.34463 0.29811 0.60522 0.48543 0.77967 0.56136 0.1755 0.0762 0.40143 0.12844 0.67789 0.15714l-4.11629 5.3877c-0.30732 0.21656-0.48218 0.47169-0.52551 0.76558-0.0252 0.0987-0.0152 0.24369 0.0313 0.43362z" style="fill:#fcd116;stroke-width:.3;stroke:#fcd116"/>
  <path id="_261572752-8-9-4-9-9-0-7" class="fil0" d="m354.3254 640.0691-8.92123-2.66634c-0.23424 0.0197-0.48579-0.0312-0.75578-0.15303-0.35357-0.15908-0.60361-0.40819-0.74987-0.74947-0.14661-0.34077-0.14003-0.688 0.0187-1.04116 0.0563-0.12477 0.15318-0.2558 0.2902-0.39407l4.61044-1.74864c0.28262-0.0725 0.69769-0.32925 1.24609-0.76959 0.54797-0.44063 1.00241-0.61701 1.36327-0.52964 0.39754 0.50375 0.50778 0.95308 0.33004 1.3481-0.13069 0.29129-0.40144 0.53142-0.81182 0.72171s-0.82942 0.28841-1.25758 0.29581c-0.19053 0.0894-0.8142 0.30886-1.87086 0.6575-0.78534 0.2464-1.3031 0.56295-1.55266 0.95077l4.38599 1.74894c0.0739 0.0586 0.18377 0.12 0.32892 0.18571 0.43647 0.19637 0.8472 0.2688 1.23335 0.21733 0.38475-0.0512 0.64806-0.23266 0.78815-0.5444 0.11212-0.2498 0.10803-0.60132-0.0122-1.0551-0.0575-0.15085-0.0671-0.26734-0.0296-0.351 0.0844-0.18712 0.3028-0.20102 0.65637-0.042 0.24904 0.11238 0.40787 0.25855 0.47631 0.43958 0.13415 0.53545 0.28736 1.0977 0.45933 1.68722 0.17168 0.5899 0.17364 1.0715 5e-3 1.44559-0.0377 0.0832-0.11415 0.19845-0.23117 0.34617zm-5.51844 17.75774c-0.67388-0.50252-1.31024-1.47651-1.9093-2.92076-0.43035-1.04325-0.7166-1.68433-0.85869-1.92326-0.0246-0.1115-0.14694-0.4094-0.36586-0.89578-0.21838-0.48541-0.28127-0.83291-0.18758-1.04053 0.056-0.1243 0.11907-0.20821 0.18822-0.25219 0.44924 0.50206 1.06297 1.3029 1.84281 2.40364 0.77902 1.10015 1.39288 1.90169 1.84173 2.40348 0.26265 0.19298 0.44507 0.46888 0.54608 0.82681 0.10102 0.35793 0.0913 0.67212-0.0298 0.94199-0.16844 0.37452-0.52464 0.52615-1.06762 0.45662zm5.42395-6.55452c0.50566 0.15242 0.66561 0.43689 0.47828 0.8521-0.12156 0.27021-0.36464 0.49217-0.73023 0.66475-0.36515 0.17287-0.68282 0.19888-0.95282 0.0771-0.1044-0.047-0.20464-0.12867-0.30104-0.24764-0.49362-0.34765-1.23441-0.8935-2.22383-1.63814-1.58834-1.19023-2.87116-2.0048-3.84789-2.44444-0.60263-0.27142-1.24391-0.48516-1.92338-0.64103-1.31581 1.25774-2.64345 2.20928-3.98431 2.85487-1.59055 0.75894-3.14946 1.05682-4.67577 0.89486-0.31257 0.0844-0.75889 0.0894-1.33802 0.0162-0.57915-0.0733-1.06663-0.19906-1.46123-0.37655-0.83079-0.37429-1.12085-0.84181-0.86813-1.40301 0.0748-0.16624 0.22528-0.36088 0.45096-0.584 2.22777 0.60296 4.09701 0.80666 5.60949 0.61291 1.96769-0.26372 3.55765-1.15996 4.77095-2.68859l-2.97399-0.88815c-0.29056-0.1309-0.78525-0.25402-1.48367-0.36802-0.69856-0.11467-1.20364-0.24177-1.51467-0.38198-0.49887-0.22451-0.80881-0.56401-0.9291-1.01781 0.61734-0.372 1.23754-0.54271 1.86102-0.51185 0.62307 0.0306 1.26779 0.19552 1.93239 0.49481 0.37452 0.16846 0.7439 0.34715 1.10806 0.53616 0.36508 0.18932 0.74036 0.38296 1.12521 0.58178 0.4156 0.18675 0.87541 0.3314 1.3799 0.43308 0.28351-0.29686 0.56451-0.6573 0.8428-1.08208 0.27841-0.42472 0.55354-0.93851 0.82464-1.54077 0.0844-0.18713 0.16864-0.3738 0.25247-0.56077 0.0188-0.0419 0.0368-0.10892 0.0535-0.20107-0.28402-0.20269-0.60213-0.3841-0.9557-0.54317-0.4156-0.18675-0.71107-0.3071-0.88673-0.36113-0.0419-0.0187-0.11342-0.0266-0.21528-0.022-0.51169-0.30536-1.19375-0.2624-2.04462 0.12925-0.9718 0.4373-1.65854 0.60263-2.06037 0.49701l-0.37409-0.16822 3.1801-3.06705c0.25269-0.28568 0.4841-0.38174 0.69199-0.28847 0.12433 0.056 0.24187 0.18417 0.352 0.38352 0.14593 0.34088 0.30298 0.68641 0.47013 1.03637l7.19116 3.01201c0.28488-0.0216 0.57284 0.0327 0.86338 0.16356 0.354 0.15931 0.59725 0.3808 0.73155 0.66618 0.1336 0.28552 0.0856 0.60097-0.14502 0.94691-0.24527-0.0103-0.54885-0.0723-0.9105-0.18454-0.36178-0.11289-0.65634-0.22047-0.88529-0.3239-0.39452-0.17766-0.77433-0.36111-1.13974-0.54995-0.36391-0.1893-0.72886-0.37798-1.0937-0.56776-0.31173-0.14009-0.55507-0.23726-0.73073-0.29131-0.25945 0.13293-0.47367 0.31743-0.64293 0.55396-0.16896 0.23613-0.347 0.5625-0.534 0.97799-0.0931 0.20735-0.16341 0.36368-0.2106 0.46733-0.0748 0.16626-0.12634 0.28056-0.15451 0.34301-0.1872 0.41532-0.39356 0.73495-0.61883 0.95837 0.82296 0.67002 2.24722 1.46124 4.27311 2.37314 2.02629 0.9122 3.48222 1.7172 4.36726 2.41581zm-15.97146-13.48648-3.28211-1.70261-2.60976 5.79801c0.15922 0.14645 0.34248 0.26631 0.55006 0.36003 0.22891 0.10256 0.77409 0.22322 1.63686 0.36157 0.44117 0.0741 0.76624 0.15775 0.97415 0.25104 0.43108 0.3189 0.57641 0.63441 0.43632 0.94612-0.10299 0.22863-0.35731 0.37638-0.76226 0.44421-0.40537 0.0676-0.77065-0.01-1.09608-0.23102-1.11325-0.30106-2.66621-0.48772-4.65815-0.56006-1.62406-0.0559-2.59031-0.1034-2.89754-0.14167-0.36052-0.0876-0.59971-0.26344-0.71756-0.52928-0.11813-0.26545-0.116-0.53357 6e-3 -0.80358 0.15861-0.35323 0.46127-0.55377 0.9084-0.60301 0.54931-0.27728 1.29468-0.26641 2.23456 0.0315 0.94093 0.2981 1.54857 0.44671 1.82356 0.44577l2.50654-6.06879c-0.14027-0.18829-0.34499-0.34305-0.61504-0.46483-0.29129-0.1307-0.77797-0.24371-1.45994-0.33819-0.68169-0.0949-1.12662-0.18876-1.33453-0.282-0.27036-0.12218-0.46217-0.26446-0.57644-0.42798-0.11335-0.16397-0.16242-0.42949-0.14697-0.79753 0.41394-0.36344 0.83508-0.53631 1.26419-0.51806 0.42955 0.0186 0.92418 0.15397 1.48537 0.40667 0.24974 0.11222 0.49143 0.22666 0.72532 0.34475 0.23433 0.11822 0.46592 0.22831 0.69471 0.3311 0.20763 0.0937 0.35762 0.14875 0.45011 0.16584 0.17143-0.0482 0.32409-0.12275 0.45751-0.22547 0.13325-0.10214 0.28001-0.33018 0.4392-0.68307 0.0558-0.12504 0.13396-0.32721 0.23487-0.60666 0.10132-0.27921 0.17976-0.48111 0.23572-0.60611 0.0748-0.16627 0.13658-0.27601 0.18537-0.32851l0.31794-1.20714c0.0233-0.43891 0.12338-0.85636 0.30141-1.2511 0.1495-0.33214 0.33015-0.5823 0.54282-0.74883 0.21293-0.16695 0.43324-0.19854 0.66166-0.0961 0.14566 0.0658 0.32639 0.2471 0.5422 0.54387 0.11843 0.40315 0.16004 0.79683 0.12472 1.18105-0.0354 0.38353-0.14242 0.77318-0.31972 1.16782-0.16844 0.37453-0.37253 0.74511-0.61231 1.11158-0.7203 1.10056-1.11297 1.72304-1.17843 1.86833-0.0636 0.19657-0.11858 0.34659-0.1658 0.45078 0.15002 0.16694 0.35002 0.33217 0.60177 0.49568 0.25157 0.16291 0.47066 0.28696 0.65767 0.37068 0.1666 0.0753 0.33712 0.13949 0.51304 0.19319 0.0415 0.0186 0.10855 0.0364 0.20103 0.0535 0.0721 7e-3 0.19046 0.0481 0.35691 0.12266 0.33239 0.14995 0.60837 0.35568 0.82808 0.61703 0.21998 0.26091 0.27823 0.50591 0.17524 0.73441-0.0743 0.16658-0.28827 0.30733-0.64034 0.42421z" style="fill:#fcd116;stroke-width:.3;stroke:#fcd116"/>
  <path id="_261572752-8-98-9-4-8-1-4" class="fil0" d="m432.9232 751.3763c-0.35138 0.0991-0.62733 0.17042-0.8279 0.21396-1.00216 0.21707-1.84236 0.21223-2.52093-0.0134-0.87602-0.27743-1.41795-0.8943-1.62544-1.85162-0.54462-2.51675-1.10082-5.24738-1.66792-8.19056-0.56744-2.94282-0.91798-4.83162-1.05195-5.66537s-0.26581-1.65638-0.39448-2.46755c-0.0917-0.42304-0.39628-1.29025-0.913-2.60022-0.26031-0.66663-0.43422-1.20034-0.5213-1.60149-0.0772-0.35595-0.12349-0.73047-0.13853-1.12388 0.26182-0.40631 0.57443-0.71298 0.93727-0.9199 0.36381-0.20734 0.79044-0.36341 1.28057-0.46966 0.31147-0.0673 0.76277-0.13578 1.35428-0.20586 0.59082-0.0701 0.94203-0.11664 1.05362-0.14109 0.28955-0.0627 0.5609-0.1559 0.81335-0.28037 1.09151-0.23653 2.66877-0.54344 4.73248-0.92004 2.06335-0.37694 3.61872-0.67853 4.66538-0.90482 1.22499-0.26557 2.31711-0.52507 3.27669-0.77953 0.95889-0.25448 1.99852-0.59587 3.11783-1.02525 0.85748-0.0224 1.57373 0.32384 2.14839 1.03904 0.19156 0.23791 0.39818 0.60174 0.62061 1.08935 0.24622 1.99878 0.55491 4.04224 0.92534 6.13032 0.37042 2.08808 0.77022 4.12351 1.19938 6.10561 0.36683 1.69288 0.6309 2.88865 0.79463 3.58766 0.16269 0.69935 0.32965 1.33362 0.49914 1.90319 2e-3 0.1162 0.0291 0.29668 0.0828 0.54172 0.0432 0.20092 0.14017 0.54115 0.29089 1.02137 0.15037 0.48058 0.25476 0.85383 0.31284 1.1215 0.11578 0.53427 0.13672 1.00768 0.0624 1.41987-0.0739 0.41255-0.29586 0.78704-0.66615 1.12382-0.82697 0.27239-1.79828 0.55266-2.91324 0.84079-1.11533 0.28775-2.17337 0.54086-3.17589 0.75757-1.29174 0.27975-3.23925 0.65452-5.84218 1.12534-2.60295 0.47014-4.57272 0.84984-5.90895 1.13949zm14.60018-5.25991c0.8461-0.18342 1.37927-0.68364 1.59883-1.50064 0.16848-0.61956 0.1495-1.40782-0.058-2.36584-0.0577-0.26732-0.11579-0.5343-0.17351-0.80161-0.0873-0.19069-0.14145-0.33033-0.16094-0.41966-0.11284-0.9549-0.28619-2.07726-0.5193-3.36777-0.23243-1.29053-0.46228-2.4586-0.6889-3.50562-0.46317-2.13852-0.943-4.08633-1.43984-5.84378-0.0676-0.3118-0.18351-0.68328-0.34657-1.11403-0.0601-0.70985-0.35051-1.24139-0.87022-1.59567-0.16761-0.1265-0.4372-0.24323-0.80983-0.34901-1.28123 0.11409-2.75835 0.3173-4.43236 0.60997-1.67334 0.29266-3.1564 0.57869-4.44778 0.85809-0.93579 0.20254-1.87678 0.40615-2.82333 0.61115-0.94655 0.20503-1.88473 0.41977-2.81589 0.64491-0.22247 0.0481-0.44637 0.0907-0.67165 0.12779-0.22566 0.0374-0.44919 0.0796-0.67202 0.12813-0.66809 0.14449-1.19888 0.35871-1.59198 0.64234-0.39343 0.28262-0.58346 0.7262-0.569 1.32975l3.81931 17.63934c0.0587 0.59367 0.34746 0.98603 0.86689 1.17643 0.51909 0.1908 1.10193 0.21605 1.74778 0.0759 0.40046-0.0864 0.71419-0.20065 0.94013-0.3431l-1.6372-1.74409c0.12197-1.05182 0.66418-2.10244 1.62664-3.14981 0.86212-0.86347 1.72524-1.72593 2.58691-2.58912-0.70812-0.68619-1.46552-1.38417-2.27241-2.09585-0.28546-0.24179-0.657-0.55748-1.11445-0.94796 0.38629-0.15384 0.78218-0.15744 1.18665-0.0118 0.57193 0.27232 1.14634 0.55612 1.72288 0.85036 0.36954 0.20038 0.74467 0.3169 1.1254 0.35164 0.38003 0.034 0.74872 0.0125 1.10467-0.0647 0.51274-0.11085 1.08967-0.35273 1.73188-0.72463 1.86483-1.08 2.8396-1.64102 2.92364-1.68239 0.12928-0.58774 0.18424-1.14181 0.16454-1.66184-0.0194-0.52039-0.0942-1.08127-0.22452-1.68264-0.12994-0.60172-0.36311-1.35507-0.69915-2.26181-0.72829-1.96429-1.16998-3.30238-1.32435-4.01567 0.1366-0.12227 0.28274-0.20044 0.43919-0.23442 0.33371-0.0722 0.78642 0.13306 1.35705 0.61552 0.39892 0.33351 0.63657 0.5152 0.7125 0.54558 0.0268 0.55341 0.0911 1.17451 0.19425 1.8633 0.10248 0.6895 0.21866 1.33442 0.34898 1.93579 0.19793 0.91318 0.39075 1.66948 0.5788 2.27064 0.18841 0.60009 0.36432 1.11572 0.52701 1.54685 0.28219 9e-3 0.57885-0.0203 0.89102-0.0873 0.26733-0.0577 0.48732-0.11735 0.66034-0.17854 0.0671-0.0145 0.1518-0.0559 0.25311-0.12448 0.61625-0.0635 0.9743 0.13857 1.07558 0.60648 0.0627 0.28956 5e-3 0.58758-0.173 0.89442-0.17868 0.30717-0.42397 0.49422-0.73611 0.56151-0.24473 0.0531-0.51881-0.0277-0.82127-0.24181-0.35665 0.0772-0.58719 0.19703-0.69199 0.35992-0.10409 0.16217-0.12975 0.36615-0.077 0.61119 0.15994 0.52473 0.32306 1.06093 0.4876 1.60825 0.85784-0.0228 1.44375-0.01 1.7574 0.0389 0.72616 0.1225 1.14733 0.45105 1.26312 0.98535 0.0191 0.0896 0.0251 0.22814 0.02 0.41567-0.16867 0.40938-0.38547 0.64333-0.65278 0.70106-0.20058 0.0435-0.53986-0.07-1.01786-0.33917-0.47833-0.26958-0.83334-0.40285-1.06608-0.39882 0.0513 0.12852 0.10348 0.31549 0.15659 0.56091 0.19795 0.91318 0.21224 1.84237 0.0443 2.78824-0.011 0.16528-0.0703 0.37669-0.17781 0.63316-0.48111-0.17598-0.84743-0.44036-1.09853-0.79428-0.25146-0.35357-0.42769-0.76411-0.52895-1.232-0.0775-0.35632-0.12938-0.81116-0.15617-1.36527-0.0646-1.26819-0.13096-2.05837-0.19825-2.37052-0.0627-0.28956-0.1612-0.58282-0.29558-0.87976-0.91596 0.29154-1.81434 0.71902-2.69483 1.28282-0.28773 0.17887-0.63916 0.44148-1.05394 0.78817 0.12792 0.15816 0.39802 0.27505 0.81021 0.34862 0.0714 8e-3 0.17926 0.0197 0.32264 0.0353 0.38628-0.15383 0.76762-0.14277 1.14367 0.032 0.37571 0.17531 0.60002 0.42979 0.67262 0.76387 0.0864 0.40045-0.1071 0.7456-0.58055 1.03477-0.15024 0.38254-0.39291 0.60961-0.72693 0.68222-0.31147 0.0673-0.64153-1e-3 -0.98881-0.20569-0.3473-0.20463-0.63526-0.45719-0.86319-0.75762-0.41855-0.422-0.84971-0.58542-1.295-0.48875-0.26733 0.0577-0.53776 0.20938-0.81096 0.45533-0.13625 0.12266-0.52733 0.58021-1.17175 1.37274-0.15521 0.36031-0.49766 0.8772-1.02773 1.5517-0.87664 1.12215-1.242 2.01765-1.09729 2.68607 0.0336 0.15539 0.11057 0.34887 0.23008 0.57907 1.38751-0.16039 2.78214-0.36922 4.18355-0.62608 1.40175-0.25648 2.78187-0.53238 4.14106-0.82628 1.20238-0.26027 2.19096-0.48598 2.9657-0.67712 0.77475-0.19116 1.43577-0.36901 1.98309-0.53423zm-7.44209-10.14055c-0.24787 0.14703-0.53957 0.28035-0.87484 0.39958-0.33595 0.1192-0.64838 0.21049-0.93793 0.27316-0.91284 0.19759-1.81339 0.24101-2.70026 0.12957-0.14272-0.0153-0.33804-0.0547-0.58492-0.11814l-1.39901-4.52368c-0.2713-0.17432-0.42875-0.3614-0.4718-0.5625-0.063-0.28921 0.0934-0.59141 0.46833-0.90561 0.23861-0.19155 0.57701-0.4047 1.01587-0.63945 0.1434 0.0154 0.37082-0.0105 0.68263-0.0781 0.22282-0.0485 0.58281-0.1612 1.08068-0.33878 0.49822-0.17793 0.88012-0.29522 1.14779-0.35329 0.4008-0.0867 0.75351-0.0992 1.05886-0.0367 0.30464 0.0618 0.57645 0.26564 0.81396 0.61026-0.0786 0.38994-0.11187 0.77624-0.0989 1.15853 0.0129 0.3816 0.0582 0.7509 0.135 1.10721 0.0531 0.24472 0.15468 0.60754 0.30575 1.08812 0.15002 0.48022 0.25229 0.84305 0.30541 1.08775 0.0867 0.4008 0.13169 0.6887 0.13405 0.86299 3e-3 0.17393-0.0241 0.45411-0.0806 0.83909zm-6.94924 5.70161c0.0441 0.52691-0.15686 0.83834-0.60216 0.93501-0.3118 0.0677-0.6213 0.0121-0.92777-0.16592-0.30718-0.17869-0.49422-0.42396-0.56187-0.73576-0.07-0.75433-0.19095-1.63753-0.36316-2.64926-0.17257-1.01209-0.34825-1.92953-0.52671-2.75407-0.36651-1.69254-0.76453-3.26179-1.1941-4.70778-0.0577-0.26732-0.15908-0.57168-0.303-0.91347 0.0789-0.39029 0.24048-0.61184 0.48593-0.66494 0.31182-0.0676 0.67794 0.0629 1.0991 0.3914 0.4208 0.32891 0.71397 0.66142 0.8805 0.99861 0.0514 0.99165 0.1458 1.93863 0.28317 2.84161 0.13703 0.90263 0.33123 1.93342 0.58193 3.09166 0.22662 1.04702 0.43689 1.91076 0.63116 2.59155 0.19358 0.6808 0.36625 1.26114 0.51698 1.74136zm4.3973-6.82783c0.43758-0.0246 0.71498-0.17214 0.83087-0.44185 0.11625-0.27005 0.13129-0.60585 0.0446-1.00665-0.0677-0.31179-0.12691-0.53215-0.17784-0.66101-0.10069-0.14162-0.15852-0.2454-0.17305-0.31246 6e-3 -0.18757 2e-3 -0.31486-0.0126-0.38195-0.0726-0.33406-0.26131-0.56086-0.56719-0.68149-0.30561-0.12017-0.64833-0.13949-1.02687-0.0577-0.46755 0.10162-0.80594 0.31478-1.01553 0.6398l-0.15706 0.24411c-0.0298 0.40228-5e-3 0.78209 0.0718 1.13875 0.13029 0.60068 0.37418 1.0555 0.73193 1.36273 0.3581 0.3069 0.84153 0.35969 1.45099 0.15767z" style="fill:#fcd116;stroke-width:.3;stroke:#fcd116"/>
  <path id="_261572752-8-2-5-2-2-1-5-2-4" class="fil0" d="m429.8108 706.2617c-2.33677 1.03137-4.67302 2.0628-7.01029 3.09418-0.26006-0.31743-0.64803-0.809-1.16532-1.47578-0.51681-0.66677-0.90576-1.15837-1.16533-1.4753-0.66471-0.81117-1.24817-1.45999-1.75033-1.94701-0.50215-0.48699-1.12076-0.94533-1.85532-1.37401-0.3227-0.1779-0.55585-0.35477-0.70044-0.53112-0.37555-0.45798-0.37972-0.94857-0.012-1.47083 0.36718-0.52223 0.91237-1.07932 1.63513-1.67174 0.229-0.18778 0.39638-0.3251 0.50219-0.41146l4.28333-3.51091c0.51574-0.30452 0.93299-0.26329 1.2508 0.12464 0.18728 0.229 0.31741 0.54934 0.39039 0.96152 0.0388 0.26318 0.0641 0.4918 0.0772 0.68826l5.22881 6.05579c0.60572 0.59447 0.83918 1.25698 0.70181 1.98852-0.0396 0.23871-0.17671 0.55743-0.41055 0.95525zm-13.3259-8.17052c-0.80977 0.1624-1.40246 0.0144-1.778-0.4437-0.26007-0.3174-0.40367-0.70776-0.43028-1.17206-0.0272-0.4643 0.0348-0.96398 0.18513-1.50004-0.0517-0.13443-0.0445-0.44924 0.0207-0.94495 0.0653-0.4957 0.0404-0.81385-0.0751-0.95494-0.0869-0.10579-0.19441-0.1646-0.32269-0.17789l-8.0898 6.63075c-0.31742 0.26008-0.64167 0.43049-0.97374 0.51129-0.33155 0.0804-0.57743 0.0233-0.73608-0.17039-0.17321-0.2116-0.2143-0.5314-0.12342-0.95987l7.77236-6.37067c0.0734-0.0892 0.20996-0.20126 0.4098-0.33574 0.19933-0.13349 0.37004-0.25849 0.51061-0.37397 0.24688-0.20232 0.27643-0.41797 0.0886-0.64697-1.67528 0.0766-3.42563 8e-3 -5.25057-0.20528-0.62351-0.0775-1.42834-0.2144-2.41314-0.40868-0.66493 0.015-1.22176-0.25085-1.66962-0.7972-0.24551-0.29952-0.35214-0.60973-0.3204-0.93067 0.0318-0.32042 0.24726-0.61464 0.64591-0.88312l5.08115 1.66961c2.02043 0.20042 3.209 0.30174 3.56469 0.30487 1.39188 8e-3 2.55113-0.24904 3.47678-0.77272-0.0769-0.20163-0.25239-0.47033-0.52703-0.80514-0.20181-0.24688-0.57161-0.60738-1.10737-1.08098-0.53578-0.47461-0.93369-0.87037-1.19374-1.18779-0.15866-0.19373-0.2657-0.34208-0.3206-0.44406-0.25321-0.0576-0.53674-0.17884-0.85049-0.36406-0.31377-0.18464-0.56427-0.39177-0.75154-0.62076-0.3906-0.47637-0.36512-0.89478 0.0755-1.25577 0.12318-0.10095 0.22782-0.17202 0.31244-0.21191 0.55626 0.10387 1.06548 0.32033 1.52666 0.64938 0.46118 0.32908 0.88705 0.73156 1.27717 1.20745 0.18727 0.22898 0.49108 0.63595 0.91142 1.21993 0.41936 0.58397 0.65087 0.90251 0.69454 0.95519 0.361 0.44059 0.71572 0.78371 1.0637 1.02831l2.37937-1.95001c0.17018-0.0801 0.28163-0.14238 0.33377-0.18559 0.28264-0.23143 0.27913-0.52277-0.0101-0.87544-0.13002-0.15847-0.43547-0.42376-0.91683-0.79538-0.24091-0.18532-0.40405-0.33137-0.49091-0.43718-0.0807-0.16968-0.16372-0.30793-0.25058-0.41373-0.29253-0.32025-0.50329-0.55936-0.63333-0.71831-0.18776-0.22899-0.2736-0.42385-0.2578-0.58463 1.24503 0.83607 2.72361 1.68761 4.43474 2.55319 0.5552 0.28193 1.29031 0.62205 2.20679 1.02038 0.36519-0.0932 0.64192-0.0256 0.82967 0.20349 0.2169 0.26473 0.27534 0.61427 0.17538 1.05005-0.1 0.43528-0.30869 0.78319-0.62561 1.04277-0.24688 0.20234-0.50232 0.25006-0.76725 0.14271-0.0544-0.10248-0.15415-0.24141-0.29876-0.41822-0.50557-0.61696-1.05973-0.86249-1.66344-0.73563-0.60369 0.12641-1.27561 0.49304-2.01574 1.09956-0.45848 0.37554-0.86882 0.75607-1.23047 1.14109 0.1027 0.26933 0.29158 0.57165 0.5657 0.90645 0.2169 0.26427 0.54589 0.62085 0.98746 1.06927 0.4416 0.44842 0.70509 0.72554 0.79193 0.83134 0.18777 0.229 0.31567 0.40365 0.38514 0.52403 0.25828 0.17176 0.32791 0.36445 0.20978 0.57957-0.0173 0.0146-0.0632 0.0668-0.13711 0.15637-0.69246-0.19841-1.33566-0.61424-1.92863-1.24793s-1.15847-1.26017-1.69599-1.88044c-0.28674 0.11722-0.55103 0.25345-0.79343 0.40709-0.24191 0.15465-0.5213 0.36155-0.83871 0.6216-0.17633 0.14411-0.3522 0.28872-0.52852 0.43329-0.0532 0.0431-0.11642 0.10986-0.19025 0.19955l1.24523 5.07887c0.0231 0.0987 0.11042 0.27779 0.26295 0.53542 0.15252 0.2581 0.20245 0.40876 0.14929 0.45242-0.0528 0.0432-0.17533 0.055-0.36747 0.0366zm9.09815 8.18814c0.1523-0.0657 0.32416-0.16206 0.51455-0.2888 0.19042-0.12671 0.3477-0.24101 0.4709-0.34194 0.35218-0.28867 0.66895-0.62157 0.94935-0.99869 0.0912-0.10423 0.19592-0.26391 0.31449-0.47906-0.17878-0.32531-0.43441-0.72731-0.7674-1.20545-0.33251-0.47868-0.61499-0.85834-0.84595-1.14047-0.82338-1.0044-1.73849-1.90507-2.74438-2.70097-0.33009-0.25967-0.76992-0.56193-1.3185-0.90827l-1.74502 1.43037c-0.0739 0.0897-0.20766 0.2146-0.40137 0.37325-0.10531 0.0869-0.27651 0.21134-0.51112 0.37446-0.23413 0.16263-0.40433 0.2876-0.51014 0.37443-0.2116 0.17372-0.37396 0.34357-0.48807 0.51003-0.1136 0.16696-0.18363 0.37866-0.20859 0.63526l4.21742 4.49912c0.60524 0.5935 1.29374 0.75102 2.06651 0.47164 0.25146-0.0885 0.58739-0.28993 1.00728-0.6049z" style="fill:#fcd116;stroke-width:.3;stroke:#fcd116"/>
  <g id="layer1-5" transform="matrix(.530069 0 0 .530069 93.33616 652.6576)">
   <g id="g3476" style=""></g>
   <polygon id="polygon23-0-7-8" class="fil1 str0" transform="matrix(84.16595 0 0 84.18417 18.87081 -151.898)" points="4.63812 2.61983 4.69572 2.42581 4.53509 2.30271 4.7374 2.29754 4.80484 2.10673 4.87228 2.29754 5.07459 2.30271 4.91396 2.42581 4.97156 2.61983 4.80484 2.50509" style="fill-rule:evenodd;fill:#fcd116;stroke-width:.01135728;stroke:#000007"/>
   <g id="layer1-0" transform="matrix(1.925959 0 0 1.926376 -186.1153 -1257.802)">
    <g id="g5018" transform="matrix(.2622398 0 0 .2622398 351.3228 512.7094)" style="">
     <g id="g6967" transform="matrix(1.005144 0 0 1.005144 -2.755924 -10.94782)" style="">
      <g id="g6167" transform="matrix(1.270755 0 0 1.270755 -330.8559 14.96484)" style="">
       <g id="g5570" transform="matrix(1.493138 0 0 1.493138 -353.9198 -47.81135)" style="">
        <g id="g4751" transform="translate(1.428571 2.678571)" style="">
         <path id="path3437" d="m341.4317 653.5459s9.28571-36.42857 34.28571-35 3.57143 37.85714-26.42857 32.85714c0 0 32.14286-15.71428 25.71429-22.85714s-33.57143 25-33.57143 25z" style="fill:#fcd116;stroke-width:1px;stroke:#000000"/>
         <path id="path3457" d="m374.3335 634.3048s5.98215-6.91964 1.69644-15.84821" style="fill:none;stroke-width:1px;stroke:#000000"/>
        </g>
        <g id="g4763" transform="translate(-1.964286 -1.25)" style="">
         <path id="path3447" d="m345.204 658.5459s7.65625 37.14286 33.37054 27.85714c25.71428-9.28571-1.42858-32.85714-22.14286-32.14286-20.71429 0.71429-5.71429 3.57143-5.71429 3.57143s24.28572 2.85715 31.42857 16.42857c7.14286 13.57143-29.28571-2.85714-32.85714-11.42857s-4.08482-4.28571-4.08482-4.28571z" style="fill:#fcd116;stroke-width:1px;stroke:#000000"/>
         <path id="path3461" d="m380.2486 679.4388s3.77232 0.15626 8.88393-3.37053" style="fill:none;stroke-width:1px;stroke:#000000"/>
        </g>
       </g>
      </g>
      <g id="g6822" transform="matrix(.979066 0 0 .979066 5.086227 21.4206)" style="">
       <path id="path6797" d="m-157.9689 856.0286 38.39011-33.29425-63.87031-8.49353-58.43445 48.92208 33.97352 32.61438 28.53782-23.10181 141.3299 142.6891c19.99395 15.9659 38.39777-8.8364 23.10201-21.74311z" style="fill:#000000;stroke-width:5.381134px;stroke:#000000"/>
       <path id="path6799" d="m-252.7551 989.5443 50.2808-50.2808s59.79348 72.0239 122.3047 13.58976c62.51138-58.43466 18.34573-120.2666-1.358872-138.9521-24.65208-23.37689-93.76704-33.63394-93.76704-33.63394s91.7123-23.71708 139.971 51.64004c59.04504 92.2004-30.4321 161.646-46.20398 167.8295-33.68832 13.20685-74.74179 14.26865-119.5869-18.34578l-29.89673 29.89643z" style="fill:#000000;stroke-width:5.381134px;stroke:#000000"/>
      </g>
     </g>
    </g>
   </g>
   <path id="path3803-7-9-5-2" d="m525.0814 184.4953c0 56.23368-45.58641 101.8201-101.82 101.8201-56.23369 0-101.8201-45.58639-101.8201-101.8201 0-56.23367 45.58637-101.8201 101.8201-101.8201 56.23363 0 101.82 45.58641 101.82 101.8201z" style="fill-rule:evenodd;fill:#ffffff;stroke-width:1.69353;stroke:#0044aa"/>
   <path id="path3830-4-0-76" d="m371.6768 97.31107s47.77664 20.25832 103.1712 0.17128" style="fill:none;stroke-width:.9391442px;stroke:#0044aa"/>
   <path id="path3856-1-0-2" d="m423.2747 262.7128v-156.2314" style="fill:none;stroke-width:.9785191px;stroke:#0044aa"/>
   <path id="path4771-34-6-4-8-8" d="m299.268 270.8784c-0.29434 0.76593 0.043 0.64663 0.47311 2.41585 0.4307 1.76916-2.78768 1.18373 1.51441 8.04094 5.23624 8.34618 10.83304 5.35528 10.83304 5.35528s4.39456-4.5446-1.97725-10.97242c-5.96536-6.01776-5.79874-3.92214-7.14733-4.46195-1.34863-0.53978-1.08971-0.70591-1.67641-1.19303-0.79434-0.65934-1.81124 0.2733-2.01955 0.81531z" style="fill:#fcd116;stroke-width:.9633471px;stroke:#000000"/>
   <g id="layer1-3-0" transform="matrix(1.920123 -.1498174 .1498498 1.920539 -312.5402 -1205.416)">
    <g id="g5018-5-0" transform="matrix(.2622398 0 0 .2622398 351.3228 512.7094)" style="">
     <g id="g6967-2-6" transform="matrix(1.005144 0 0 1.005144 -2.755924 -10.94782)" style="">
      <g id="g6167-0-4" transform="matrix(1.270755 0 0 1.270755 -330.8559 14.96484)" style="">
       <path id="path4771-7-21-3" d="m62.58328 496.3824c-1.084457-0.66427-0.997476-0.11739-3.814928 0.0412-2.817452 0.15865-1.019478-4.58254-12.68072 0.0455-14.1934 5.633-11.21041 15.0062-11.21041 15.0062s5.689244 7.97785 17.27863 0.0739c10.85006-7.3997 7.609401-7.73547 8.811602-9.63934 1.202172-1.90386 1.382597-1.46229 2.290012-2.21968 1.228395-1.02529 0.0931-2.83788-0.674183-3.30794z" style="fill:#fcd116;stroke-width:1.493138px;stroke:#000000"/>
       <path id="path4771-11-80-5" d="m54.67175 512.8467c-1.093117-0.64985-0.998922-0.10408-3.814032 0.0917-2.81511 0.19587-1.079976-4.56867-12.67902 0.21313-14.11769 5.82015-11.01103 15.15309-11.01103 15.15309s5.794195 7.90196 17.27807-0.15446c10.7513-7.54249 7.506475-7.83541 8.683392-9.75499 1.176932-1.91957 1.363168-1.48045 2.260479-2.24976 1.214749-1.04143 0.05566-2.83885-0.717854-3.29874z" style="fill:#fcd116;stroke-width:1.493138px;stroke:#000000"/>
       <path id="path4771-52-0-6" d="m35.23498 506.8726c-1.236013-0.29915-0.985289 0.19464-3.617893 1.21078-2.632633 1.01615-2.377442-4.04806-12.05409 3.93727-11.77788 9.7193-6.060705 17.72363-6.060705 17.72363s7.864173 5.84538 16.4665-5.23548c8.053575-10.374 4.866368-9.69843 5.425843-11.87946 0.559474-2.18102 0.866779-1.81621 1.497767-2.81566 0.854217-1.35294-0.782732-2.72938-1.657419-2.94108z" style="fill:#fcd116;stroke-width:1.493138px;stroke:#000000"/>
       <path id="path4771-76-3-6" d="m39.55753 529.3817c-1.095776-0.64539-0.999341-0.10004-3.813627 0.1074-2.814286 0.20742-1.098696-4.56419-12.67804 0.26511-14.09371 5.87796-10.94883 15.19809-10.94883 15.19809s5.826533 7.87814 17.27729-0.22527c10.72029-7.58649 7.47431-7.86611 8.643349-9.7905 1.169024-1.92438 1.357082-1.48602 2.251226-2.259 1.210456-1.0464 0.04409-2.83905-0.73137-3.29576z" style="fill:#fcd116;stroke-width:1.493138px;stroke:#000000"/>
       <path id="path4771-22-03-1" d="m15.77904 527.4375c-1.249906-0.23452-0.973855 0.24556-3.550124 1.39716-2.576241 1.15158-2.584582-3.91905-11.83314 4.5584-11.25684 10.31829-5.131402 18.01464-5.131402 18.01464s8.157339 5.42878 16.17214-6.08416c7.503541-10.77853 4.355755-9.93823 4.801129-12.14538 0.445373-2.20718 0.771211-1.85882 1.349406-2.88969 0.782747-1.39552-0.923519-2.68502-1.808007-2.85097z" style="fill:#fcd116;stroke-width:1.493138px;stroke:#000000"/>
       <path id="path4771-22-0-2-8-3" d="m-0.3978749 542.5313c-1.327896-0.22055-1.034613 0.23094-3.771604 1.31392-2.736976 1.083-2.745823-3.68556-12.57141 4.28684-11.95914 9.70359-5.45156 16.94146-5.45156 16.94146s8.666276 5.10536 17.18111-5.72171c7.971695-10.1364 4.627511-9.34618 5.100669-11.42186 0.473158-2.07566 0.819349-1.74806 1.433612-2.71752 0.8315646-1.31238-0.981141-2.52506-1.920821-2.68113z" style="fill:#fcd116;stroke-width:1.492465px;stroke:#000000"/>
       <path id="path4771-3-7-7" d="m-16.78978 561.1632c-1.271705 3e-3 -0.910639 0.42361-3.225602 2.03736-2.314963 1.61373-3.272873-3.36561-10.76999 6.69404-9.12505 12.24404-1.666512 18.65695-1.666512 18.65695s9.029757 3.80485 14.74642-9.00549c5.351971-11.99317 2.417268-10.57816 2.44138-12.82968 0.024-2.25153 0.409422-1.97036 0.784309-3.09129 0.507491-1.51743-1.410078-2.46454-2.310005-2.46189z" style="fill:#fcd116;stroke-width:1.493138px;stroke:#000000"/>
       <path id="path4771-1-4-6" d="m-35.01266 578.2785c-1.258276 0.18437-0.841207 0.54871-2.903437 2.47493-2.062244 1.92626-3.717827-2.86648-9.709765 8.15622-7.293032 13.41621 1.000917 18.70445 1.000917 18.70445s9.478715 2.48345 13.31747-11.00911c3.593868-12.63185 0.889967-10.81429 0.593967-13.04639-0.296029-2.23212 0.125333-2.00854 0.337156-3.17135 0.286807-1.57415-1.745889-2.2392-2.636304-2.10875z" style="fill:#fcd116;stroke-width:1.493138px;stroke:#000000"/>
       <path id="path4771-16-4-0" d="m3.231106 581.4212c-1.265952 0.12085-0.8677479 0.50568-3.024245 2.32576-2.156511 1.82006-3.568931-3.04989-10.10772 7.65748-7.958627 13.03238 0.05883 18.73113 0.05883 18.73113s9.341802 2.95708 13.85438-10.32532c4.224696-12.43509 1.432788-10.75583 1.249443-12.99998-0.1833739-2.24418 0.2262069-1.99971 0.4962587-3.15041 0.3656057-1.5577-1.631066-2.32417-2.526916-2.23866z" style="fill:#fcd116;stroke-width:1.493138px;stroke:#000000"/>
       <path id="path4771-34-11-6" d="m-6.429508 599.2749c-1.245902 0.25489-0.808999 0.59516-2.759571 2.63439-1.950571 2.03925-3.873229-2.65275-9.235392 8.68968-6.526519 13.80536 2.051879 18.6185 2.051879 18.6185s9.603441 1.94611 12.67685-11.74107c2.877344-12.81407 0.279998-10.84723-0.14109-13.05914-0.421145-2.21192 0.01156-2.01242 0.158192-3.18531 0.197743-1.58779-1.869141-2.1374-2.75081-1.95705z" style="fill:#fcd116;stroke-width:1.493138px;stroke:#000000"/>
       <path id="path4771-34-2-4-2" d="m-16.62524 735.2088c-1.117012 0.60786-0.599749 0.80561-1.869185 3.32587-1.26945 2.52025-4.479411-1.40499-6.292636 11.00934-2.206977 15.11002 7.403548 17.20599 7.403548 17.20599s9.752915-0.94546 8.692093-14.93331c-0.993211-13.09552-2.902352-10.45546-3.951493-12.44774-1.049199-1.99229-0.576706-1.92806-0.779625-3.09249-0.274908-1.57626-2.412207-1.49782-3.202659-1.0677z" style="fill:#fcd116;stroke-width:1.493138px;stroke:#000000"/>
       <path id="path4771-34-9-5-6" d="m-54.39288 712.8622c-1.012177 0.76987-0.470946 0.88706-1.344462 3.57038-0.87353 2.68331-4.640421-0.71112-4.554553 11.83465 0.104517 15.26999 9.921516 15.88782 9.921516 15.88782s9.49761-2.41014 6.332694-16.07646c-2.963053-12.79454-4.450802-9.89603-5.78928-11.70664-1.338535-1.81059-0.861763-1.8186-1.238529-2.93893-0.510223-1.51653-2.611035-1.11563-3.327328-0.57085z" style="fill:#fcd116;stroke-width:1.493138px;stroke:#000000"/>
       <path id="path4771-34-31-7-3" d="m-51.52057 738.6632c-0.787373 0.99865-0.234042 0.97669-0.408439 3.79322-0.174397 2.81651-4.670735 0.47252-1.448733 12.59778 3.921642 14.75819 13.58098 12.90022 13.58098 12.90022s8.59255-4.70975 2.109067-17.14957c-6.069928-11.64627-6.785151-8.46774-8.534077-9.88586-1.748969-1.41813-1.28937-1.54517-1.934439-2.53559-0.873429-1.34064-2.80713-0.42689-3.364335 0.27978z" style="fill:#fcd116;stroke-width:1.493138px;stroke:#000000"/>
       <path id="path4771-34-98-8-7" d="m-48.8437 769.5034c-0.737644 1.03592-0.186034 0.98696-0.222593 3.80865-0.03657 2.82167-4.642069 0.70019-0.831391 12.6535 4.638151 14.54893 14.19516 12.22116 14.19516 12.22116s8.352134-5.124 1.268496-17.23214c-6.631787-11.33573-7.190842-8.12604-9.006959-9.45702-1.816204-1.33097-1.363342-1.48032-2.056043-2.43803-0.937902-1.29636-2.824636-0.2892-3.346641 0.44385z" style="fill:#fcd116;stroke-width:1.493138px;stroke:#000000"/>
       <path id="path4771-34-5-6-4-5" d="m-40.80935 796.7633c-0.512536 1.16388 0.01778 1.00421 0.55349 3.77478 0.535694 2.77062-4.404052 1.62591 1.748709 12.55967 7.488751 13.30796 16.37622 9.09273 16.37622 9.09273s7.141201-6.70946-2.24796-17.13192c-8.790294-9.75757-8.687671-6.50116-10.73573-7.43672-2.048106-0.93552-1.634911-1.17349-2.507213-1.97106-1.181037-1.07951-2.82468 0.28882-3.187394 1.11248z" style="fill:#fcd116;stroke-width:1.493138px;stroke:#000000"/>
       <path id="path4771-45-1-7-0" d="m-48.70955 598.7194c-1.228048 0.33036-0.771211 0.64336-2.593847 2.79772-1.822637 2.15436-4.02772-2.41173-8.688538 9.23645-5.672866 14.17752 3.182971 18.45881 3.182971 18.45881s9.704214 1.35711 11.93759-12.49196c2.090896-12.96565-0.381724-10.84414-0.936905-13.02625-0.555196-2.18214-0.110443-2.00941-0.03628-3.18903 0.100613-1.59689-1.995964-2.01951-2.864998-1.78574z" style="fill:#fcd116;stroke-width:1.493138px;stroke:#000000"/>
       <path id="path4771-22-0-6-1" d="m22.22657 542.5313c-1.327896-0.22057-1.034613 0.23092-3.771618 1.31391-2.736962 1.08299-2.745809-3.68557-12.5714 4.28685-11.95915 9.70357-5.451559 16.94144-5.451559 16.94144s8.666276 5.10535 17.18111-5.72171c7.971682-10.13641 4.627512-9.34618 5.10067-11.42186 0.473158-2.07566 0.819335-1.74806 1.433598-2.71752 0.831579-1.31238-0.98114-2.52506-1.920807-2.68111z" style="fill:#fcd116;stroke-width:1.492465px;stroke:#000000"/>
       <path id="path4771-14-9-3" d="m4.078659 551.2181c-1.271431 0.0269-0.9028037 0.44008-3.188089 2.09557-2.285299 1.65549-3.333414-3.30565-10.64668 6.88845-8.9013 12.40766-1.327577 18.68412-1.327577 18.68412s9.097322 3.64032 14.5805-9.27169c5.133398-12.08833 2.224874-10.6203 2.208105-12.87189-0.016769-2.25159 0.3735709-1.97747 0.7280455-3.10502 0.4798802-1.52638-1.454573-2.43852-2.354298-2.41954z" style="fill:#fcd116;stroke-width:1.493138px;stroke:#000000"/>
       <path id="path4771-34-1-4-3" d="m-2.95061 570.5028c-1.270159 0.0626-0.890068 0.46525-3.127981 2.18425s-3.42492-3.21075-10.44911 7.18461c-8.549472 12.65267-0.802537 18.71404-0.802537 18.71404s9.195956 3.38347 14.31449-9.67736c4.791978-12.22767 1.925823-10.67857 1.845896-12.9288-0.08009-2.25022 0.317742-1.98721 0.640587-3.12421 0.43686-1.53928-1.522458-2.39675-2.421301-2.35252z" style="fill:#fcd116;stroke-width:1.493138px;stroke:#000000"/>
       <path id="path4771-2-9-5" d="m-18.06252 585.7004c-1.27172-6.6e-4 -0.912099 0.42045-3.232642 2.02617-2.320543 1.60571-3.261193-3.37693-10.79312 6.65666-9.16745 12.21234-1.731188 18.65107-1.731188 18.65107s9.016515 3.83613 14.77755-8.95433c5.393519-11.97452 2.453928-10.56971 2.485833-12.82113 0.03195-2.25143 0.416259-1.96894 0.79502-3.08856 0.512767-1.51565-1.401535-2.4694-2.301447-2.46988z" style="fill:#fcd116;stroke-width:1.493138px;stroke:#000000"/>
       <path id="path4771-5-7-8" d="m-38.6823 603.6469c-1.22296 0.3488-0.761453 0.65489-2.551462 2.83644-1.789995 2.18154-4.063571-2.35083-8.548518 9.36619-5.458846 14.26129 3.460424 18.4088 3.460424 18.4088s9.723542 1.2109 11.74823-12.67023c1.895509-12.99565-0.544903-10.83716-1.132885-13.01068-0.587981-2.17353-0.140801-2.0075-0.08413-3.18812 0.07662-1.59821-2.026133-1.98923-2.891539-1.7424z" style="fill:#fcd116;stroke-width:1.493138px;stroke:#000000"/>
       <path id="path4771-45-4-8-0" d="m-51.11476 622.8944c-1.191215 0.44521-0.706796 0.71353-2.317117 3.03088-1.610337 2.31733-4.238112-2.0193-7.774373 10.01806-4.304132 14.65121 4.917484 18.07423 4.917484 18.07423s9.789143 0.4316 10.70038-13.56677c0.853104-13.10544-1.407404-10.7592-2.166848-12.8789-0.759429-2.11971-0.300366-1.98989-0.338255-3.17124-0.05103-1.59924-2.17831-1.82132-3.021281-1.50626z" style="fill:#fcd116;stroke-width:1.493138px;stroke:#000000"/>
       <path id="path4771-45-2-9-4" d="m-55.55527 650.361c-1.088158 0.65813-0.562409 0.83208-1.715648 3.4076-1.153253 2.57552-4.538781-1.19934-5.784278 11.28473-1.515924 15.1949 8.180137 16.85063 8.180137 16.85063s9.699718-1.38902 8.002357-15.31397c-1.589072-13.03666-3.375872-10.31233-4.514799-12.25469-1.138913-1.94237-0.663745-1.89983-0.919789-3.05372-0.346438-1.56208-2.477969-1.38633-3.247995-0.92058z" style="fill:#fcd116;stroke-width:1.493138px;stroke:#000000"/>
       <path id="path4771-45-0-3-2" d="m-53.99822 682.4745c-1.031736 0.74348-0.493714 0.87461-1.436185 3.53451-0.942514 2.65985-4.620515-0.83065-4.858504 11.71313-0.289654 15.26759 9.508119 16.13861 9.508119 16.13861s9.556677-2.16421 6.745542-15.90766c-2.631838-12.86676-4.193877-10.00762-5.485242-11.85214-1.291351-1.84454-0.81429-1.84033-1.162259-2.96991-0.470874-1.52919-2.581372-1.18267-3.311485-0.65653z" style="fill:#fcd116;stroke-width:1.493138px;stroke:#000000"/>
       <path id="path5154-66-8" d="m-55.12456 595.3511c-4.567456 4.4548-66.59116 98.95637 25.04848 235.748-3.131982 1.99846-54.07524-168.2399-25.04848-235.748z" style="fill:#fcd116;stroke-width:1.493138px;stroke:#000000"/>
       <path id="path4771-761-9-1" d="m-23.03372 610.0572c-1.222959 0.3488-0.761453 0.65489-2.551462 2.83644-1.789995 2.18154-4.063571-2.35083-8.548518 9.36619-5.458845 14.26129 3.460424 18.4088 3.460424 18.4088s9.723542 1.2109 11.74823-12.67023c1.895509-12.99565-0.544903-10.83716-1.132884-13.01068-0.587982-2.17353-0.140801-2.0075-0.08413-3.18812 0.07662-1.59821-2.026133-1.98923-2.891539-1.7424z" style="fill:#fcd116;stroke-width:1.493138px;stroke:#000000"/>
       <path id="path4771-45-8-7" d="m-39.39653 629.1601c-1.228048 0.33036-0.771225 0.64336-2.593847 2.79773-1.822651 2.15434-4.027734-2.41173-8.688538 9.23643-5.672866 14.17753 3.182957 18.45882 3.182957 18.45882s9.704214 1.35711 11.9376-12.49196c2.090895-12.96565-0.381724-10.84414-0.93692-13.02625-0.555196-2.18214-0.110444-2.00941-0.03628-3.18903 0.100614-1.59689-1.995948-2.0195-2.864983-1.78574z" style="fill:#fcd116;stroke-width:1.493138px;stroke:#000000"/>
       <path id="path4771-82-9-0" d="m-43.32041 655.4932c-1.167594 0.50393-0.67041 0.74782-2.16345 3.14241-1.493026 2.39458-4.333319-1.8059-7.266274 10.39249-3.569827 14.84721 5.810674 17.80717 5.810674 17.80717s9.798496-0.056 10.0121-14.08239c0.199984-13.13162-1.940987-10.67583-2.804948-12.75513-0.863975-2.07929-0.399085-1.97247-0.495608-3.15049-0.130682-1.5947-2.266232-1.71068-3.092491-1.35406z" style="fill:#fcd116;stroke-width:1.493138px;stroke:#000000"/>
       <path id="path4771-8-1-1" d="m-43.05267 680.4338c-1.117865 0.60635-0.600862 0.80479-1.873738 3.32331-1.272891 2.51853-4.477474-1.41111-6.307671 11.00074-2.22762 15.10697 7.380028 17.21609 7.380028 17.21609s9.754217-0.93212 8.712477-14.92141c-0.975314-13.09689-2.88804-10.45945-3.934507-12.45313-1.046467-1.9937-0.573844-1.92889-0.774999-3.09367-0.27274-1.57661-2.410141-1.5011-3.201185-1.07203z" style="fill:#fcd116;stroke-width:1.493138px;stroke:#000000"/>
       <path id="path4771-85-3-3" d="m-10.20861 620.7654c-1.235739 0.30029-0.786679 0.62436-2.661328 2.73362-1.874648 2.10924-3.967698-2.50927-8.911231 9.02175-6.017005 14.03493 2.731757 18.53096 2.731757 18.53096s9.668232 1.59342 12.23873-12.19707c2.406556-12.91076-0.117093-10.8502-0.6188887-13.04522-0.501795-2.19502-0.06158-2.0115 0.04149-3.18897 0.1395-1.59394-1.946119-2.06758-2.820589-1.85507z" style="fill:#fcd116;stroke-width:1.493138px;stroke:#000000"/>
       <path id="path4771-23-5-5" d="m-15.64083 646.8826c-1.228048 0.33037-0.771211 0.64337-2.593847 2.79772-1.822637 2.15436-4.02772-2.41173-8.688538 9.23645-5.672866 14.17753 3.182971 18.45882 3.182971 18.45882s9.704214 1.35711 11.93759-12.49196c2.090896-12.96565-0.381724-10.84414-0.936919-13.02625-0.555182-2.18214-0.110444-2.00941-0.03628-3.18903 0.100614-1.59689-1.995962-2.01951-2.864997-1.78575z" style="fill:#fcd116;stroke-width:1.493138px;stroke:#000000"/>
       <path id="path4771-34-77-96-1" d="m-19.35575 674.2805c-1.132683 0.57818-0.620797 0.78948-1.956383 3.27534-1.335558 2.48585-4.440727-1.5228-6.581221 10.8393-2.605282 15.04645 6.946508 17.39553 6.946508 17.39553s9.774498-0.68752 9.083474-14.6985c-0.646962-13.11721-2.625158-10.52851-3.621304-12.54779-0.996218-2.01928-0.525575-1.9426-0.697673-3.11199-0.233189-1.58296-2.37179-1.56103-3.173358-1.15191z" style="fill:#fcd116;stroke-width:1.493138px;stroke:#000000"/>
       <path id="path4771-89-0-8" d="m-27.89642 637.5321c-1.195031 0.43492-0.712939 0.70742-2.343195 3.01079-1.630257 2.30334-4.220519-2.05578-7.86053 9.95061-4.430419 14.61351 4.761302 18.11598 4.761302 18.11598s9.785052 0.51608 10.81708-13.47392c0.966164-13.09756-1.314509-10.77094-2.055623-12.89713s-0.283264-1.9924-0.310861-3.17404c-0.0373-1.59961-2.16251-1.84006-3.00817-1.53229z" style="fill:#fcd116;stroke-width:1.493138px;stroke:#000000"/>
       <path id="path4771-27-3-4" d="m-33.1011 665.9581c-1.059955 0.70268-0.527455 0.8547-1.572997 3.47578-1.045542 2.62107-4.584578-1.01027-5.311741 11.51468-0.885081 15.24466 8.871261 16.49726 8.871261 16.49726s9.633814-1.78971 7.36099-15.63237c-2.127845-12.95964-3.800255-10.16361-5.018647-12.05713-1.218435-1.8935-0.741981-1.87067-1.045513-3.013-0.410896-1.54638-2.533277-1.28246-3.283353-0.78522z" style="fill:#fcd116;stroke-width:1.493138px;stroke:#000000"/>
       <path id="path4771-31-6-1" d="m-25.54741 692.2998c-1.207564 0.39876-0.733886 0.68563-2.432736 2.93888-1.69885 2.25326-4.156739-2.18185-8.156414 9.70957-4.868175 14.47357 4.213985 18.25107 4.213985 18.25107s9.765088 0.8103 11.21764-13.14232c1.359873-13.06255-0.98977-10.8056-1.666555-12.95313-0.676814-2.14752-0.223186-2.00003-0.215206-3.18196 0.01012-1.60002-2.106161-1.90429-2.960711-1.62211z" style="fill:#fcd116;stroke-width:1.493138px;stroke:#000000"/>
       <path id="path4771-54-8-9" d="m-20.77128 709.6048c-1.222945 0.34879-0.761453 0.65488-2.551463 2.83643-1.789995 2.18154-4.06357-2.35081-8.548517 9.36619-5.458846 14.26128 3.460438 18.40882 3.460438 18.40882s9.723528 1.2109 11.74822-12.67023c1.895509-12.99565-0.544889-10.83718-1.13287-13.01069-0.587996-2.17354-0.140801-2.00751-0.08428-3.18811 0.07662-1.59821-2.026132-1.98925-2.891539-1.74241z" style="fill:#fcd116;stroke-width:1.493138px;stroke:#000000"/>
       <path id="path4771-9-7-4" d="m-41.81433 702.3746c-1.040844 0.73068-0.504484 0.86846-1.479799 3.51646-0.975315 2.64803-4.609861-0.88771-5.002977 11.65217-0.478478 15.26283 9.307774 16.25497 9.307774 16.25497s9.582697-2.04583 6.941767-15.82301c-2.472476-12.89831-4.069772-10.05872-5.338211-11.91907-1.268452-1.86039-0.791565-1.85024-1.12544-2.98408-0.451965-1.53487-2.56654-1.2145-3.303114-0.69744z" style="fill:#fcd116;stroke-width:1.493138px;stroke:#000000"/>
       <path id="path4771-88-3" d="m-36.25324 722.9675c-1.123329 0.59612-0.608148 0.79927-1.903951 3.30608-1.295818 2.50682-4.464434-1.4519-6.407778 10.94273-2.365342 15.08604 7.22266 17.28272 7.22266 17.28272s9.762327-0.8431 8.848234-14.84131c-0.855764-13.10524-2.792487-10.48536-3.820725-12.48852-1.028253-2.00315-0.55628-1.93404-0.747157-3.10049-0.258356-1.57904-2.396335-1.52305-3.191283-1.10121z" style="fill:#fcd116;stroke-width:1.493138px;stroke:#000000"/>
       <path id="path4771-4-9-5" d="m-30.57632 740.976c-0.885977 0.9123-0.333297 0.94743-0.796596 3.73106-0.463285 2.78362-4.694559-0.0101-2.737352 12.38183 2.382212 15.08338 12.18149 14.22921 12.18149 14.22921s9.031562-3.80058 3.862531-16.8415c-4.839306-12.20904-5.877808-9.12099-7.471549-10.71154-1.593784-1.59054-1.123387-1.66973-1.663273-2.72119-0.730836-1.42337-2.748295-0.71347-3.37525-0.0679z" style="fill:#fcd116;stroke-width:1.493138px;stroke:#000000"/>
       <path id="path4771-34-8-8-2" d="m-22.65512 765.7258c-0.708993 1.05574-0.158914 0.99169-0.118105 3.81332 0.04077 2.82161-4.621137 0.8271-0.484405 12.67154 5.034982 14.4164 14.52462 11.82767 14.52462 11.82767s8.208629-5.35089 0.795931-17.26042c-6.939843-11.14979-7.41076-7.92598-9.26267-9.20672-1.851968-1.2807-1.40337-1.44241-2.122063-2.38079-0.973059-1.27017-2.831503-0.2117-3.333226 0.53537z" style="fill:#fcd116;stroke-width:1.493138px;stroke:#000000"/>
       <path id="path4771-34-7-9-3" d="m-6.65758 785.8688c-0.9264387 0.87117-0.375942 0.93134-0.9650937 3.69107-0.589139 2.75973-4.689239-0.22366-3.296451 12.24485 1.695236 15.17595 11.52316 14.76737 11.52316 14.76737s9.194743-3.38676 4.622886-16.64886c-4.28025-12.41606-5.457819-9.37832-6.977704-11.03958-1.519943-1.66125-1.046597-1.7189-1.538056-2.79386-0.66548-1.4551-2.71308-0.83748-3.368702-0.22101z" style="fill:#fcd116;stroke-width:1.493138px;stroke:#000000"/>
       <path id="path4771-34-3-30-3" d="m-40.91387 752.7066c-0.839833 0.95496-0.286097 0.96272-0.611371 3.76583-0.325259 2.8031-4.689355 0.22124-2.122554 12.50191 3.124164 14.94735 12.86929 13.6103 12.86929 13.6103s8.832866-4.24193 3.026152-17.01172c-5.436323-11.95515-6.321071-8.81956-7.991385-10.3295-1.670357-1.50991-1.2046-1.61212-1.795603-2.63572-0.800239-1.38557-2.780171-0.57689-3.374499 0.0989z" style="fill:#fcd116;stroke-width:1.493138px;stroke:#000000"/>
       <path id="path4771-34-4-9-4" d="m-33.5987 778.797c-0.541709 1.15058-0.0072 1.00432 0.458109 3.78755 0.465699 2.78322-4.443618 1.51435 1.431545 12.59973 7.150901 13.49253 16.14181 9.50268 16.14181 9.50268s7.308066-6.52731-1.815437-17.18313c-8.541535-9.97606-8.521022-6.71811-10.54486-7.705-2.023878-0.98686-1.604799-1.21434-2.456733-2.03364-1.153441-1.10896-2.831055 0.2176-3.214412 1.03178z" style="fill:#fcd116;stroke-width:1.493138px;stroke:#000000"/>
       <path id="path4771-34-6-4-80" d="m-19.9606 802.887c-0.547245 1.14794-0.01156 1.00427 0.439837 3.78971 0.452298 2.78542-4.45086 1.49291 1.370815 12.6065 7.085805 13.5268 16.09583 9.58035 16.09583 9.58035s7.339421-6.49201-1.732604-17.19169c-8.493339-10.0171-8.488539-6.7591-10.50759-7.75573-2.019107-0.99659-1.598945-1.22206-2.446903-2.04544-1.148077-1.1145-2.832081 0.20394-3.219356 1.01627z" style="fill:#fcd116;stroke-width:1.493138px;stroke:#000000"/>
       <path id="path4771-34-5-62-3" d="m-0.6799399 812.4277c-0.6530477 1.09125-0.107119 0.99865 0.08066 3.8143 0.187624 2.81567-4.571812 1.06663 0.176103 12.67959 5.778871 14.13462 15.12086 11.05526 15.12086 11.05526s7.918817-5.7711-0.103938-17.27846c-7.511072-10.77328-7.813476-7.52933-9.729556-8.71189-1.916152-1.18252-1.47659-1.36736-2.24316-2.26704-1.03788-1.21777-2.838673-0.064-3.300816 0.70821z" style="fill:#fcd116;stroke-width:1.493138px;stroke:#000000"/>
       <path id="path5160-3-9" d="m126.7174 925.9484s-44.05456-40.97405-60.85667-62.23643c-16.80208-21.2624-11.1492-31.76131-54.31157-54.62244 0 0 15.96337 57.78226 53.50484 81.27338 37.54146 23.4911 12.75076 8.81564 61.66339 35.58549z" style="fill:#fcd116;stroke-width:1.493138px;stroke:#000000"/>
       <path id="path5162-08-1" d="m137.2089 933.8306s-100.5945-70.93652-113.6615-87.71579c-13.06698-16.77926-40.31006-48.81315-40.31006-48.81315s13.18566 50.71784 48.21424 73.58726c35.02861 22.8694 48.05706 37.00943 105.7573 62.94168z" style="fill:#fcd116;stroke-width:1.493138px;stroke:#000000"/>
       <path id="path5158-3-5" d="m135.9663 929.5478s-99.33796-10.93677-140.9626-58.6339c-41.62462-47.69715-67.64499-92.27361-66.86181-100.6093 0 0 80.87757 89.07469 104.7728 104.683 25.71887 16.79945 37.17704 22.59724 103.0516 54.56022z" style="fill:#fcd116;stroke-width:1.493138px;stroke:#000000"/>
       <path id="path5156-0-5" d="m133.2985 928.1699s-47.13427 10.18101-83.3334-12.44345c-36.19914-22.62444-46.00306-33.18253-55.42992-35.06789 0 0 47.13428 16.59127 69.38166 29.41178 22.24738 12.82053 31.67422 13.19761 69.38166 18.09956z" style="fill:#fcd116;stroke-width:1.493138px;stroke:#000000"/>
       <g id="g5570-9-9" transform="matrix(1.493138 0 0 1.493138 -353.9198 -47.81135)" style=""></g>
      </g>
     </g>
    </g>
   </g>
   <path id="path5391-77-5" d="m548.3207 94.54069c-0.18252-0.484323-5.3658-15.51796-28.76266-28.8577-6.99653-4.655473-16.91314-8.117493-21.8278-10.18736l-0.26389 2.229281c18.61404 7.203877 38.66883 17.86043 48.63197 37.20485z" style="fill:#fcd116;stroke-width:.9633471px;stroke:#000000"/>
   <path id="path5391-0-8-7" d="m545.8773 98.97538c0.01-0.51037 0.77493-16.175-16.00342-36.99296-4.77012-6.835164-12.69489-13.65296-16.49104-17.35588l-1.07227 1.942852c14.61353 13.44293 29.28373 30.57557 31.35852 51.9441z" style="fill:#fcd116;stroke-width:.9567648px;stroke:#000000"/>
   <path id="path5164-21-6" d="m540.5149 79.35132 1.59601 12.80248c1.2357 9.913068 14.16654 5.054018 8.19101-3.23388-2.63158-3.64991-9.78702-9.568604-9.78702-9.568604z" style="fill:#fcd116;stroke-width:.9633471;stroke:#000000"/>
   <path id="path5391-9-2-3" d="m556.6239 122.1406c-0.0777-0.5117-2.02175-16.29485-22.13321-34.20997-5.87556-6.009116-14.85548-11.4583-19.23233-14.50528l-0.72161 2.125645c16.70918 10.9185 34.10955 25.51388 39.83251 46.50786z" style="fill:#fcd116;stroke-width:.9633471px;stroke:#000000"/>
   <path id="path5164-8-5-5" d="m538.9084 91.04795 2.17101 12.71758c1.68102 9.84729 14.37985 4.41052 8.03713-3.59971-2.79334-3.527629-10.20814-9.117872-10.20814-9.117872z" style="fill:#fcd116;stroke-width:.9633471;stroke:#000000"/>
   <path id="path5391-7-2-2" d="m555.1293 134.564c-0.16087-0.49195-4.67163-15.74097-27.45315-30.10667-6.78303-4.961616-16.53621-8.860665-21.35406-11.14676l-0.36267 2.215358c18.27597 8.023489 37.83782 19.56024 46.93236 39.32806z" style="fill:#fcd116;stroke-width:.9633471px;stroke:#000000"/>
   <path id="path5164-6-27-2" d="m549.904 90.31876-0.21922 12.89976c-0.16983 9.98835 13.31555 6.99576 8.56421-2.05005-2.0924-3.983693-8.34499-10.84971-8.34499-10.84971z" style="fill:#fcd116;stroke-width:.9633471;stroke:#000000"/>
   <path id="path5391-3-7-6" d="m554.5031 131.3082c-0.0797-0.51141-2.08266-16.28717-22.26093-34.12698-5.89789-5.987106-14.89818-11.4027-19.28635-14.4333l-0.71373 2.128341c16.74991 10.85596 34.2047 25.38619 40.00607 46.35864z" style="fill:#fcd116;stroke-width:.9633471px;stroke:#000000"/>
   <path id="path5164-0-34-6" d="m548.4841 103.338-0.58632 12.88828c-0.45398 9.97947 13.11109 7.37203 8.61911-1.80539-1.97816-4.04163-8.03279-11.08289-8.03279-11.08289z" style="fill:#fcd116;stroke-width:.9633471;stroke:#000000"/>
   <path id="path5391-72-6-0" d="m565.6314 165.3388c-0.0541-0.51477-1.25843-16.37152-20.51093-35.20697-5.58846-6.27713-14.30399-12.14006-18.53375-15.38824l-0.8201 2.08959c16.18081 11.68747 32.88035 27.08009 37.61643 48.31861z" style="fill:#fcd116;stroke-width:.9633471px;stroke:#000000"/>
   <path id="path5164-2-1-4" d="m545.9272 109.8472-1.66066 12.79425c-1.28578 9.90667 12.44961 8.4417 8.73984-1.07894-1.63379-4.19278-7.07918-11.71531-7.07918-11.71531z" style="fill:#fcd116;stroke-width:.9633471;stroke:#000000"/>
   <path id="path5391-6-9-5" d="m561.5772 120.8433c0.12387-0.50252 4.36731-15.82809-7.35754-40.07811-3.12876-7.800819-9.33983-16.2728-12.21749-20.76328l-1.48011 1.687546c11.25896 16.48368 21.74949 36.62888 19.00338 58.21522z" style="fill:#fcd116;stroke-width:.9633471px;stroke:#000000"/>
   <path id="path5164-4-9-6" d="m558.6235 108.4204-2.61004 12.63473c-2.02096 9.78315 11.78536 9.34701 8.79593-0.42389-1.31658-4.303-6.18589-12.21084-6.18589-12.21084z" style="fill:#fcd116;stroke-width:.9633471;stroke:#000000"/>
   <path id="path5391-01-9-1" d="m568.9832 147.5098c0.22463-0.4663 7.52805-14.59159 1.03912-40.73487-1.45817-8.277657-5.79488-17.84602-7.68784-22.83238l-1.79535 1.347051c7.62959 18.4471 13.75447 40.31945 6.62914 60.87965z" style="fill:#fcd116;stroke-width:.9633471px;stroke:#000000"/>
   <path id="path5164-86-8-8" d="m554.3516 119.6078-1.54908 12.80824c-1.1995 9.91749 12.5226 8.33291 8.73-1.15505-1.6702-4.17838-7.18092-11.65319-7.18092-11.65319z" style="fill:#fcd116;stroke-width:.9633471;stroke:#000000"/>
   <path id="path5391-65-0-0" d="m552.702 214.5677c0.1959-0.47906 6.62895-15.02163-1.43416-40.72289-1.9577-8.17386-6.86685-17.46138-9.05892-22.32366l-1.71035 1.45354c8.73473 17.95 16.17531 39.41029 10.31057 60.36509z" style="fill:#fcd116;stroke-width:.9633471px;stroke:#000000"/>
   <path id="path5164-5-8-4" d="m565.2809 121.4426-3.29445 12.47373c-2.55081 9.65848 11.25877 9.97533 8.80596 0.0561-1.08024-4.36836-5.51151-12.52977-5.51151-12.52977z" style="fill:#fcd116;stroke-width:.9633471;stroke:#000000"/>
   <path id="path5391-75-4-5" d="m558.9738 199.753c0.1472-0.49621 5.09866-15.6078-5.48602-40.377-2.76265-7.93792-8.57307-16.68964-11.2388-21.30912l-1.55695 1.61686c10.48029 16.98958 20.02281 37.60098 16.27596 59.03621z" style="fill:#fcd116;stroke-width:.9633471px;stroke:#000000"/>
   <path id="path5164-09-9-8" d="m550.7591 125.8425-1.92031 12.75782c-1.487 9.87847 12.27535 8.69316 8.75991-0.90096-1.54819-4.22515-6.8396-11.85686-6.8396-11.85686z" style="fill:#fcd116;stroke-width:.9633471;stroke:#000000"/>
   <path id="path5164-00-3-0" d="m560.6695 134.7834-3.59071 12.39164c-2.78035 9.59491 11.0178 10.24092 8.80202 0.26598-0.97575-4.39285-5.21131-12.65762-5.21131-12.65762z" style="fill:#fcd116;stroke-width:.9633471;stroke:#000000"/>
   <path id="path5164-61-80-4" d="m568.7096 137.2146-3.60536 12.38738c-2.79167 9.59163 11.0057 10.25395 8.80173 0.27639-0.97064-4.39401-5.19637-12.66377-5.19637-12.66377z" style="fill:#fcd116;stroke-width:.9633471;stroke:#000000"/>
   <path id="path5164-3-5-3" d="m556.0059 142.089-3.5422 12.40559c-2.74277 9.60571 11.05775 10.19776 8.803 0.23154-0.99297-4.389-5.2608-12.63713-5.2608-12.63713z" style="fill:#fcd116;stroke-width:.9633482;stroke:#000000"/>
   <path id="path5164-89-0-5" d="m563.8087 150.2961-4.12399 12.22445c-3.1932 9.46546 10.56403 10.70866 8.78225 0.64706-0.78457-4.43101-4.65826-12.87151-4.65826-12.87151z" style="fill:#fcd116;stroke-width:.9633471;stroke:#000000"/>
   <path id="path5164-34-53-6" d="m572.0954 153.9215-4.41798 12.12126c-3.42089 9.38556 10.3023 10.96075 8.76404 0.85906-0.67743-4.44868-4.34606-12.98032-4.34606-12.98032z" style="fill:#fcd116;stroke-width:.9633471;stroke:#000000"/>
   <path id="path5164-46-5-7" d="m557.2784 159.6376-3.32368 12.46595c-2.57353 9.65246 11.23525 10.0018 8.80577 0.0768-1.06991-4.37088-5.48209-12.5427-5.48209-12.5427z" style="fill:#fcd116;stroke-width:.9633471;stroke:#000000"/>
   <path id="path5164-06-0-8" d="m565.3135 165.6198-4.17555 12.20691c-3.23315 9.45189 10.51866 10.75321 8.77949 0.68417-0.76598-4.43429-4.60394-12.89108-4.60394-12.89108z" style="fill:#fcd116;stroke-width:.9633471;stroke:#000000"/>
   <path id="path5164-618-1-6" d="m573.7574 170.9219-5.71154 11.56787c-4.42251 8.95708 9.04751 12.01784 8.61843 1.80867-0.18901-4.49601-2.90689-13.37654-2.90689-13.37654z" style="fill:#fcd116;stroke-width:.9633471;stroke:#000000"/>
   <path id="path5164-49-8-8" d="m560.0939 176.1492-5.5243 11.65851c-4.27748 9.02725 9.24017 11.87031 8.64647 1.66939-0.26143-4.49238-3.12217-13.3279-3.12217-13.3279z" style="fill:#fcd116;stroke-width:.9633471;stroke:#000000"/>
   <path id="path5164-63-0-8" d="m567.1339 181.9109-6.42439 11.1875c-4.97459 8.66255 8.2775 12.56085 8.48825 2.34483 0.0925-4.49902-2.06386-13.53233-2.06386-13.53233z" style="fill:#fcd116;stroke-width:.9633471;stroke:#000000"/>
   <path id="path5164-7-4-0" d="m573.713 188.2042-5.92397 11.46051c-4.58692 8.87393 8.82436 12.18275 8.5836 1.96739-0.10597-4.49872-2.65963-13.4279-2.65963-13.4279z" style="fill:#fcd116;stroke-width:.9633471;stroke:#000000"/>
   <path id="path5164-88-72-1" d="m561.006 193.0837-7.84881 10.23824c-6.07736 7.92752 6.54197 13.54643 8.10325 3.44826 0.68756-4.44711-0.25444-13.6865-0.25444-13.6865z" style="fill:#fcd116;stroke-width:.9633471;stroke:#000000"/>
   <path id="path5164-29-8-2" d="m566.9063 200.1002-7.6717 10.37164c-5.9403 8.03083 6.77378 13.43198 8.1612 3.30848 0.61111-4.4583-0.4895-13.68012-0.4895-13.68012z" style="fill:#fcd116;stroke-width:.9633471;stroke:#000000"/>
   <path id="path5164-1-9-6" d="m557.4947 207.7373-6.76994 10.98176c-5.24211 8.50323 7.88196 12.81282 8.41102 2.60834 0.23309-4.49393-1.64108-13.5901-1.64108-13.5901z" style="fill:#fcd116;stroke-width:.9633471;stroke:#000000"/>
   <path id="path5164-35-9-0" d="m572.7754 205.9164-7.77856 10.29168c-6.02295 7.96893 6.63446 13.50136 8.12667 3.39275 0.65706-4.45173-0.34811-13.68443-0.34811-13.68443z" style="fill:#fcd116;stroke-width:.9633471;stroke:#000000"/>
   <path id="path5164-9-3-4" d="m563.7357 217.6241-8.59619 9.619c-6.656 7.44806 5.50521 14.00007 7.82106 4.04789 1.01993-4.38283 0.77513-13.66689 0.77513-13.66689z" style="fill:#fcd116;stroke-width:.9633471;stroke:#000000"/>
   <path id="path5164-84-8-1" d="m549.0556 217.8907-4.76845 11.98764c-3.69225 9.2821 9.97938 11.25572 8.73541 1.11356-0.54775-4.46649-3.96696-13.1012-3.96696-13.1012z" style="fill:#fcd116;stroke-width:.9633471;stroke:#000000"/>
   <path id="path5164-07-2-8" d="m541.5167 229.0697-5.57064 11.63642c-4.3133 9.01016 9.19283 11.90701 8.63977 1.7038-0.24351-4.49337-3.06913-13.34022-3.06913-13.34022z" style="fill:#fcd116;stroke-width:.9633471;stroke:#000000"/>
   <path id="path5164-636-2-8" d="m558.9439 231.5881-8.86893 9.36795c-6.86735 7.25364 5.10063 14.15252 7.70151 4.27102 1.14538-4.35169 1.16742-13.63897 1.16742-13.63897z" style="fill:#fcd116;stroke-width:.9633471;stroke:#000000"/>
   <path id="path5164-15-7-2" d="m548.0716 235.4824-6.83547 10.94112c-5.29269 8.47176 7.80541 12.85968 8.39537 2.65854 0.25985-4.49247-1.5599-13.59966-1.5599-13.59966z" style="fill:#fcd116;stroke-width:.9633471;stroke:#000000"/>
   <path id="path5164-42-0-3-6" d="m529.6344 255.7254-7.32074 10.62233c-5.66864 8.22494 7.2188 13.19801 8.26717 3.03377 0.46175-4.47621-0.94643-13.6561-0.94643-13.6561z" style="fill:#fcd116;stroke-width:.9633471;stroke:#000000"/>
   <path id="path5164-35-9-7-5" d="m571.5907 217.6829-7.77855 10.29169c-6.02295 7.96893 6.63445 13.50136 8.12666 3.39274 0.65706-4.45172-0.34811-13.68443-0.34811-13.68443z" style="fill:#fcd116;stroke-width:.9633471;stroke:#000000"/>
   <path id="path5164-42-05-1" d="m538.8212 244.3143-7.32073 10.62233c-5.66865 8.22494 7.2188 13.19801 8.26716 3.03378 0.46175-4.47622-0.94643-13.65611-0.94643-13.65611z" style="fill:#fcd116;stroke-width:.9633471;stroke:#000000"/>
   <path id="path5164-42-4-9-0" d="m528.3397 271.2616-10.51984 7.46566c-8.14556 5.78071 2.25405 14.8741 6.72497 5.68645 1.96902-4.04613 3.79487-13.15211 3.79487-13.15211z" style="fill:#fcd116;stroke-width:.9633471;stroke:#000000"/>
   <path id="path5521-9-3" d="m453.595 328.8689s58.35081-4.76972 88.31866-34.16769c29.96796-29.39798 46.80042-58.70813 46.80042-58.70813l-54.14988 50.97123s-34.36921 26.02098-54.75342 33.45668c-20.3843 7.43567-26.21578 8.44791-26.21578 8.44791z" style="fill:#fcd116;stroke-width:.9633471px;stroke:#000000"/>
   <path id="path4769-9-7" d="m521.6407 251.5103s4.07539 76.07742-89.9622 82.69793c0 0 51.80934-13.02488 89.9622-82.69793z" style="fill:#fcd116;stroke-width:.9633471px;stroke:#000000"/>
   <path id="path5519-8-2" d="m445.502 332.0659s30.16375-6.32601 46.70507-10.70557c16.54141-4.37955 33.08283 1.94647 33.08283 4.86617s-16.54142 9.24571-40.867 10.21894c-24.32548 0.97324-38.9209-4.37954-38.9209-4.37954z" style="fill:#fcd116;stroke-width:.9633471px;stroke:#000000"/>
   <path id="path5164-42-1-6-7" d="m541.966 258.2035-10.04875 8.08889c-7.78081 6.26328 3.15001 14.71036 7.05685 5.26885 1.72048-4.15792 2.9919-13.35774 2.9919-13.35774z" style="fill:#fcd116;stroke-width:.9633471;stroke:#000000"/>
   <path id="path5164-15-7-3-8" d="m550.8226 245.2812-6.83547 10.94112c-5.29269 8.47176 7.80542 12.85968 8.39537 2.65854 0.25986-4.49246-1.5599-13.59966-1.5599-13.59966z" style="fill:#fcd116;stroke-width:.9633471;stroke:#000000"/>
   <path id="path5525-6-5" d="m569.0298 229.6954c-14.60182 23.47994-65.97135 75.25352-74.64251 83.30164 0 0 68.1524-46.46987 85.51588-77.089 13.03837-22.99217 14.96538-61.50449 7.48121-86.89976-7.48397-25.39448-12.58174-31.29549-12.58174-31.29549 3.15503 9.01698 9.58404 87.28846-5.77284 111.9826z" style="fill:#fcd116;stroke-width:.9633471px;stroke:#000000"/>
   <path id="path3437-8-2" d="m423.4428 333.328s-8.94439-35.09716-33.02546-33.7208c-24.08107 1.37635-3.44015 36.47351 25.45713 31.65625 0 0-30.96138-15.13994-24.76911-22.02173 6.19228-6.88181 32.33744 24.08628 32.33744 24.08628z" style="fill:#fcd116;stroke-width:.9633471px;stroke:#000000"/>
   <path id="path3457-48-6" d="m391.7504 314.7902s-5.76227-6.66673-1.63408-15.26897" style="fill:none;stroke-width:.9633471px;stroke:#000000"/>
   <path id="path3447-9-3" d="m423.0773 334.3603s-7.37483 35.78535-32.14393 26.839c-24.7691-8.94633 1.37607-31.65625 21.32895-30.96808 19.95289 0.68818 5.50425 3.4409 5.50425 3.4409s-23.39305 2.75273-30.27335 15.82813c-6.8803 13.07541 28.20925-2.75271 31.64941-11.01088 3.44016-8.25815 3.93467-4.12907 3.93467-4.12907z" style="fill:#fcd116;stroke-width:.9633471px;stroke:#000000"/>
   <path id="path3461-7-0" d="m389.3208 354.4896s-3.63366 0.15055-8.55737-3.24734" style="fill:none;stroke-width:.9633471px;stroke:#000000"/>
   <path id="path3437-4-4" d="m423.1027 333.328s8.94439-35.09716 33.02546-33.7208c24.08107 1.37635 3.44015 36.47351-25.45713 31.65625 0 0 30.96138-15.13994 24.76911-22.02173-6.19228-6.8818-32.33744 24.08628-32.33744 24.08628z" style="fill:#fcd116;stroke-width:.9633471px;stroke:#000000"/>
   <path id="path3457-6-7" d="m454.7951 314.7901s5.76226-6.66673 1.63408-15.26897" style="fill:none;stroke-width:.9633471px;stroke:#000000"/>
   <path id="path3447-2-7" d="m423.4682 334.3602s7.37484 35.78534 32.14394 26.83899c24.7691-8.94632-1.37607-31.65625-21.32895-30.96808-19.95289 0.68818-5.50425 3.4409-5.50425 3.4409s23.39305 2.75273 30.27335 15.82813c6.8803 13.07541-28.20925-2.75271-31.64941-11.01088-3.44016-8.25815-3.93468-4.12906-3.93468-4.12906z" style="fill:#fcd116;stroke-width:.9633471px;stroke:#000000"/>
   <path id="path3461-3-7" d="m457.2248 354.4895s3.63365 0.15055 8.55737-3.24734" style="fill:none;stroke-width:.9633471px;stroke:#000000"/>
   <path id="path3856-1-0-41-0" d="m321.8299 184.4559h202.9398" style="fill:none;stroke-width:1.115241px;stroke:#0044aa"/>
   <path id="path3830-4-0-7-5-6" d="m333.0333 137.255s83.7738 19.90404 180.9053 0.16828" style="fill:none;stroke-width:1.232673px;stroke:#0044aa"/>
   <path id="path3830-4-0-7-1-5" d="m371.6768 271.6796s47.77665-20.25829 103.1712-0.17128" style="fill:none;stroke-width:.9391442px;stroke:#0044aa"/>
   <path id="path3830-4-0-7-5-5-1" d="m333.0332 231.7356s83.7738-19.90404 180.9053-0.16828" style="fill:none;stroke-width:1.232673px;stroke:#0044aa"/>
   <path id="path3836-9-0-6-3" d="m464.0504 268.2746s98.09696-79.61696 5.24581-169.121" style="fill:none;stroke-width:.9697281px;stroke:#0044aa"/>
   <path id="path3838-4-4-3-35" d="m453.7612 265.3603s62.15162-90.93424 2.14319-162.7516" style="fill:none;stroke-width:.9765411px;stroke:#0044aa"/>
   <path id="path3840-8-4-9-6" d="m434.2604 263.1278s51.9746-73.50373-0.53581-157.3602" style="fill:none;stroke-width:.9774764px;stroke:#0044aa"/>
   <path id="path3836-9-0-6-7-3" d="m382.4723 268.2746s-98.09696-79.61696-5.24581-169.121" style="fill:none;stroke-width:.9697281px;stroke:#0044aa"/>
   <path id="path3838-4-4-3-3-2" d="m392.7616 265.3603s-62.15162-90.93425-2.14319-162.7516" style="fill:none;stroke-width:.9765411px;stroke:#0044aa"/>
   <path id="path3840-8-4-9-4-9" d="m412.2623 263.1278s-51.9746-73.50373 0.53582-157.3602" style="fill:none;stroke-width:.9774764px;stroke:#0044aa"/>
   <path id="path3362-1-0-6" d="m437.7647 106.415c-4.5639 9.63989-16.93224 11.37518-25.51614 7.08321-3.42141-1.71069-7.11455-6.9116-9.7439-8.22627l-22.79363-5.06026c-2.64813 3.68576-4.74189 9.64627-10.04632 11.41442-1.72224 0.57408-3.32009 3.87023-4.91156 4.66597-4.88837 2.44419-19.93794 2.06359-10.82615 11.17539 0.33015 0.33014 1.80322 0.0571 2.09539 0.34923 5.74447 5.74448 17.12273-10.47693 23.39846-10.47693 2.41515 0 5.93692-4.07004 5.93692 0.69845 0 0.84348 0.98131 3.27586 0.34923 4.54001-2.3165 4.63304-5.28562 9.45282-9.42923 11.52462-3.67636 1.83818-12.3006 3.22061-15.01692 5.93693-0.52158 0.52157-2.42503 0.10988-3.14308 0.34922-5.23422 1.74475-13.34836 5.43254-9.77847 12.57233 1.08553 2.17104 3.54703 4.22724 5.5877 5.58769 0.94984 0.63323 3.44669 3.09746 4.19077 3.84154 0.53422 0.53422 1.58293 0.062 2.44461 0.34923 8.03897 2.67965 15.99718 2.47834 23.7477-1.39692 0.72444-0.36222 13.33156-1.97384 13.62001-1.39693 1.06608 2.13215 16.82647 8.06399 20.95387 10.12769 2.2443 1.12217 4.3973 2.72251 6.6354 3.84155 2.2984 1.14923 2.8872 4.93594 4.8892 5.93693 2.3312 1.1656 5.3513 1.80258 8.0323 3.14308 2.6658 1.3329 6.829-6.98463 9.7785-6.98463 0.8839 0 4.4657-1.12195 5.2384-0.34922 1.3561 1.35608 17.8136 4.18796 19.2077 2.79383 1.4756-1.47552 5.1152-1.27364 6.6354-2.79383 3.8603-3.86033 12.4492-10.14786 9.7785-18.16002-0.388-1.16405-0.6602-4.85095-1.3969-5.58769-0.9716-0.9716-2.7196-5.02669-3.8416-5.5877-4.3766-2.18833-5.9369-7.91015-5.9369-13.62 0-3.12763-0.2588-6.98462 2.7939-6.98462 9.703 0 7.9036 6.72739 10.8261 12.57231 0.4206 0.84114 2.2239 1.52541 2.7939 2.09538 2.0795 2.07955 4.1903-3.14223 4.54-3.84153 2.1858-4.37172-3.2142-7.82525-4.54-10.47694-0.2262-0.45231-2.3049-1.46659-2.7939-2.4446-2.5714-5.14276-8.3125-5.90242-13.9692-8.73078-0.4751-0.23753-0.5145-1.45199-1.397-1.74615-5.1653-1.72178-11.5065-8.86608-14.2868-11.52262z" style="fill-rule:evenodd;fill:#ffffff;stroke-width:.9877741px;stroke:#0044aa"/>
   <path id="path3366-5-4-4" d="m369.2932 179.5029c-3.99853-3.29726-13.0149-6.06486-18.16001-3.4923-3.12606 1.56303-4.52817 4.99776-6.98462 6.63538-7.23675 4.82452-11.12198 11.98068-6.63538 20.95386 2.23063 4.46126 17.39677 10.98109 17.81077 12.22308 1.44081 4.3224 4.00164 8.70173 6.28615 13.27077 1.09047 2.18091 0.81133 6.04981 2.44462 7.68305 0.76391 0.76396 11.1433 14.35055 15.01693 10.47692 0.77832-0.77826 2.37034-0.97336 3.4923-2.09537 4.11072-4.11072 0.3393-10.457 2.79385-15.36614 3.08121-6.16241 10.79019-16.83502 6.98463-24.44617-2.10581-4.2116-13.11885-11.56997-14.6677-14.66768-0.762-1.524-7.24702-10.49467-8.38154-11.1754z" style="fill-rule:evenodd;fill:#ffffff;stroke-width:.9877741px;stroke:#0044aa"/>
   <path id="path3368-2-4-4" d="m490.4763 204.9967c-2.6199 1.13985-15.9254-0.83768-17.1123 0.34922-0.5875 0.58746-4.011 2.09539-5.2385 2.09539-1.229 0-6.7417 1.98908-8.0323 0.69846-0.631-0.63108-7.8269-3.69767-8.7307-2.79385-2.0076 2.00755-9.6058 14.48726-8.3816 18.16001 1.162 3.48592 7.741 6.69334 10.1277 9.08001 1.5094 1.50935 14.8641 16.45734 15.0169 16.7631 0.9433 1.88658 9.0807 1.04766 11.5247 1.04766 3.2362 0 5.4656-1.97331 7.683-4.19075 1.7486-1.74855 4.0194-2.27317 6.2862-4.53999 4.2999-4.29993 2.0954-12.07848 2.0954-18.16002 0-3.76171-2.0179-6.82964-3.4923-9.77846-1.2022-2.40433-0.7705-6.2915-1.7462-8.73078z" style="fill-rule:evenodd;fill:#ffffff;stroke-width:.9877741px;stroke:#0044aa"/>
   <path id="path6797-0-2" d="m410.1745 163.3443 19.08118-16.55195-31.74571-4.22249-29.04391 24.32121 16.88599 16.21396 14.18427-11.48487 70.24576 70.93668c9.93768 7.93731 19.085-4.39294 11.48249-10.80941z" style="fill:#000000;stroke-width:2.674896px;stroke:#000000"/>
   <path id="path6799-9-4" d="m363.0625 229.7205 24.99127-24.99667s29.71939 35.80607 60.78962 6.75604c31.07028-29.05031 9.11845-59.78956-0.6754-69.07887-12.25293-11.62162-46.60542-16.72083-46.60542-16.72083s45.58413-11.79075 69.57036 25.67241c29.34739 45.83666-15.12578 80.36093-22.96494 83.43502-16.74424 6.56568-37.14922 7.09354-59.43877-9.12045l-14.85969 14.86275z" style="fill:#000000;stroke-width:2.674896px;stroke:#000000"/>
   <path id="path3830-4-0-7-59" d="m371.6768 97.31107s47.77664 20.25832 103.1712 0.17128" style="fill:none;stroke-width:.9391442px;stroke:#0044aa"/>
  </g>
  <path id="_263149024-3-8-4-2" class="fil0" d="m255.047 646.1752c-0.22746 0.433-0.54798 0.79176-0.9608 1.07614-0.3377 0.2323-0.90275 0.49678-1.69489 0.79305-0.79213 0.29625-1.36678 0.56697-1.72349 0.81244-0.11264 0.0776-0.26842 0.2124-0.46754 0.40491 0.10906 0.11867 0.25372 0.30928 0.43478 0.57236 0.38745 0.563 0.68076 1.14974 0.87913 1.75968 0.0461 0.10665 0.0767 0.2517 0.0919 0.43519-0.48342 0.22158-0.88669 0.0982-1.20974-0.37112-0.0126-0.0191-0.1981-0.38887-0.55648-1.1106-0.11763-0.25079-0.24036-0.42914-0.36836-0.53574-0.18332 0.0158-0.35882 0.0821-0.52802 0.19833-0.18749 0.12924-0.38057 0.33064-0.57908 0.60601-0.48316 0.66415-0.79965 1.04844-0.95008 1.15193-0.22505 0.15472-0.45841 0.21841-0.69864 0.18965-0.20463-0.57802-0.0393-1.16209 0.49507-1.75164 0.68637-0.61074 1.15102-1.04107 1.3942-1.29141-0.13711-0.31982-0.30299-0.62091-0.49704-0.90233-0.1679-0.24406-0.31297-0.43493-0.43479-0.57236-0.0389-0.0562-0.11587-0.12736-0.23091-0.21461-0.27096-0.39422-0.28462-0.67542-0.0408-0.84289 0.20629-0.14198 0.52416-0.15338 0.95244-0.0332 0.42854 0.11977 0.73924 0.32087 0.93332 0.60226 0.14214 0.20695 0.19251 0.42062 0.15184 0.64261 0.0148 0.18324 0.0617 0.33082 0.13932 0.44346 0.16789 0.24406 0.50493 0.1919 1.01208-0.15704 0.11265-0.0776 0.26575-0.19674 0.45928-0.35747 0.1931-0.16102 0.31828-0.26091 0.37483-0.29957 0.0879-0.0333 0.22595-0.1138 0.41348-0.24303 0.11264-0.0776 0.29886-0.21973 0.55742-0.42546 0.25993-0.20607 0.45505-0.35431 0.58646-0.44463 0.39449-0.27138 0.75727-0.43815 1.08782-0.49947 0.33064-0.0624 0.65655 0.0592 0.9773 0.36447zm1.56621 5.89368c-0.61037 0.19811-1.18683 0.436-1.72954 0.713-0.54262 0.2759-1.1052 0.61459-1.6872 1.0152-0.48814 0.33578-1.11152 0.78606-1.87123 1.35076-0.75989 0.56403-1.15838 0.85891-1.19615 0.88482l-0.29625-0.79213c0.19033-0.40727 0.41906-0.75818 0.68651-1.05306 0.26714-0.2951 0.58891-0.57118 0.96439-0.82939 0.52548-0.36196 1.15623-0.67159 1.89157-0.92878 0.50985-0.18464 1.20832-0.37497 2.09679-0.57132 0.0823-2e-3 0.27271-0.0564 0.57111-0.16503 0.29907-0.10885 0.48012-0.11629 0.5447-0.022 0.0517 0.0748 0.0604 0.2077 0.0253 0.39792zm10.89274 5.69853c0.16362-0.0844 0.27713-0.0796 0.34154 0.014 0.0517 0.0749 0.0459 0.1965-0.0176 0.3653-0.0643 0.16831-0.20356 0.47876-0.41788 0.93078-0.20085 0.55254-0.47933 0.95201-0.83605 1.19748-0.54425 0.3747-1.51079 0.41772-2.89926 0.12754-0.90018-0.18228-1.48961-0.27478-1.76814-0.27679-0.0817 5.2e-4 -0.63976-0.1262-1.67416-0.38338-0.75467-0.17208-1.35501-0.16012-1.8005 0.0362l3.83631 5.5755c0.0707 0.0617 0.17102 0.18709 0.30023 0.37465 0.24547 0.35672 0.39773 0.72908 0.45703 1.11664 0.0594 0.38826-0.0516 0.67906-0.33342 0.87289-0.0562 0.0389-0.20428 0.0849-0.44346 0.1393-0.32749-0.35557-0.54923-0.59741-0.66507-0.72483-0.11578-0.12845-0.28948-0.36114-0.52221-0.6991-0.36169-0.52589-0.68878-1.0612-0.98147-1.60658-0.87751-1.63697-1.37403-2.54014-1.49052-2.70891-0.23247-0.33837-0.42279-0.59385-0.57095-0.7693-0.14802-0.17475-0.4044-0.42689-0.76926-0.75629-0.19344 1.04564-0.48585 2.22855-0.87712 3.5494-0.12667 0.4191-0.30187 0.96834-0.52576 1.64807-0.0818 0.44373-0.33831 0.81395-0.77057 1.11123-0.54424 0.3747-0.94548 0.37432-1.20411-2e-3 -0.0903-0.13143-0.15069-0.33911-0.1796-0.6227 0.69973-1.39511 1.39382-2.79887 2.08054-4.21233 0.61916-1.75358 0.50878-3.24064-0.33135-4.4608-0.1064 0.0457-0.25388 0.13305-0.44183 0.26203-0.24406 0.16788-0.57486 0.45113-0.99256 0.84905-0.41755 0.39859-0.74851 0.68115-0.99215 0.8493-0.28185 0.19379-0.52789 0.32819-0.73823 0.40422-0.21104 0.0762-0.48998 0.12296-0.83753 0.14043-0.0316-0.44791 0.087-0.84828 0.35705-1.19988 0.26954-0.3519 0.65799-0.70195 1.16513-1.05091 0.43158-0.29712 0.74136-0.51018 0.92889-0.63941 0.24406-0.16788 0.41591-0.2998 0.51582-0.39613l-0.82481-1.92197c0.0911-0.22917 0.18391-0.37602 0.27779-0.44086 0.20628-0.14198 0.51717 0.0183 0.93167 0.47958 0.41465 0.46198 0.69791 0.72301 0.85037 0.78399 0.25862-0.0673 0.47831-0.14913 0.66048-0.24702 0.18169-0.0971 0.40407-0.23612 0.66715-0.41718 0.14977-0.10329 0.37814-0.27387 0.68417-0.51287 0.30619-0.23831 0.54375-0.41537 0.71293-0.53159 0.11265-0.0776 0.25057-0.15874 0.41375-0.24345 0.16295-0.0843 0.28207-0.15272 0.35735-0.20413 0.17368-0.23 0.39945-0.3445 0.67728-0.34231 0.0824-1e-3 0.21524 0.0319 0.39988 0.0987 0.0691 0.42242 0.0334 0.77204-0.10808 1.04941-0.14125 0.27696-0.38054 0.53141-0.71852 0.76413-0.18749 0.12925-0.56097 0.33043-1.11979 0.6045-0.55812 0.2739-0.93691 0.50644-1.1363 0.69936-0.17634 0.0657-0.29257 0.11803-0.34868 0.15693-0.28158 0.19339-0.27377 0.50677 0.0234 0.93835 0.0641 0.0941 0.16723 0.22347 0.30898 0.38867 0.1415 0.16559 0.23156 0.27669 0.27049 0.3328 1.48107 0.14264 3.1059 0.17195 4.87508 0.0889 1.3069-0.0695 2.5568-0.18253 3.74929-0.33932 0.9589-0.13421 1.45735-0.2145 1.49447-0.24024zm-17.99802 2.42756c0.34154 0.014 0.64128 0.0982 0.89948 0.25225 0.25873 0.15404 0.47816 0.36292 0.65902 0.62537 0.21973 0.31961 0.41965 0.79034 0.59899 1.41346 0.39984 1.38448 0.67125 2.18045 0.81324 2.38673 0.14556 0.45304 0.15409 0.82744 0.026 1.12341-0.12848 0.29574-0.37142 0.5664-0.72813 0.81189-0.2624 0.18089-0.63386 0.39483-1.11396 0.64209-0.48009 0.24727-0.80752 0.44488-0.98231 0.59289-0.70689 0.90157-1.41112 1.7875-2.11309 2.65748-0.2253 0.15515-0.43541 0.25152-0.631 0.28931-0.19491 0.0376-0.44234 0.0206-0.74008-0.0509-0.0351 0.19021-0.0996 0.3174-0.19353 0.38224-0.13142 0.0903-0.39697-0.0243-0.79667-0.3439-0.40012-0.31985-0.67891-0.4939-0.83717-0.52373-0.033-0.0876-0.10756-0.21635-0.22378-0.38555-0.14173-0.2067-0.44264-0.53218-0.90116-0.97716-0.45826-0.4454-0.75226-0.76144-0.88124-0.9494-0.23272-0.33794-0.37779-0.75031-0.43557-1.23559 0.43899-0.24703 0.81115-0.30943 1.11605-0.18744 0.30515 0.12158 0.59353 0.37988 0.86447 0.77416 0.12941 0.18817 0.31077 0.49128 0.54438 0.91169 0.23428 0.42023 0.40933 0.71482 0.52513 0.88374 0.10372 0.15003 0.239 0.30604 0.40533 0.46782 0.29957 0.59631 0.66548 0.74582 1.09707 0.4487 0.18817-0.12942 0.3509-0.30383 0.48995-0.52443 0.1394-0.21983 0.25072-0.47011 0.33538-0.74883 0.37661-0.17618 0.55966-0.39236 0.54958-0.6483-0.0101-0.25593-0.13777-0.56191-0.38325-0.91862-0.16788-0.24407-0.29061-0.42243-0.36819-0.53507-0.12697-0.0234-0.27467 0.023-0.44388 0.13905-0.42469 0.34807-0.8397 0.6888-1.2458 1.02344-0.15961-0.11148-0.26536-0.20448-0.31673-0.27981-0.19365-0.28117-0.11967-0.61602 0.22249-1.00362 0.3415-0.38746 0.61037-0.69014 0.80661-0.90807 0.19598-0.21749 0.20981-0.44841 0.0419-0.69248-0.24458-0.27427-0.41199-0.47765-0.50231-0.60906-0.0517-0.0749-0.0977-0.18151-0.13753-0.32008-0.1712-0.0483-0.34154-0.014-0.51072 0.10221-0.14977 0.10329-0.33281 0.31949-0.54959 0.64828-0.21608 0.32864-0.37142 0.52488-0.46527 0.58973-0.18792 0.129-0.39385 0.0912-0.61827-0.11418-0.17376-0.65488 0.12609-1.34467 0.89895-2.07034 1.07215-1.01492 1.64497-1.58902 1.71897-1.72313 0.13821-0.48177 0.0656-0.93007-0.21879-1.34289-0.23273-0.33796-0.53608-0.55763-0.91069-0.65998-0.37443-0.10166-0.74926-0.0236-1.12474 0.23462-0.0561 0.0389-0.14682 0.12876-0.27066 0.26984-0.4138 1.52916-1.0737 3.06283-1.98031 4.59899-0.30824 0.5168-0.7351 1.14274-1.2806 1.87775-0.12353 0.22262-0.28851 0.40545-0.49479 0.54742-0.28142 0.19408-0.5673 0.30118-0.85767 0.32134-0.29077 0.0199-0.51991-0.092-0.68782-0.33607-0.10347-0.15046-0.16254-0.31691-0.17797-0.5 0.89597-0.94853 1.75356-1.95402 2.57221-3.01563 0.29786-0.37088 0.65121-0.86241 1.05905-1.47516 0.49144-0.9746 0.79112-1.66508 0.89879-2.07103 0.26473-0.90107 0.22246-1.60584-0.12632-2.11231-0.20655-0.30059-0.50659-0.53611-0.90149-0.70799-0.28439-0.41282-0.57638-0.51537-0.87697-0.30882-0.16881 0.11647-0.40628 0.40375-0.71248 0.86357-0.30618 0.45981-0.54709 0.72249-0.72302 0.78846-0.0912 0.22915-0.20981 0.44842-0.3555 0.6592-0.14528 0.21104-0.32188 0.38734-0.52814 0.52934-0.3377 0.23231-0.66274 0.26295-0.97477 0.0907-0.2719-0.83665-0.044-1.56066 0.68374-2.17204 0.72748-0.61097 1.4286-1.19019 2.10295-1.73792l-1.84925-1.96342c0.055-0.12092 0.15098-0.24273 0.28831-0.36463 0.0566-0.0387 0.1156-0.0936 0.17771-0.16408 0.37546-0.25822 0.82811-0.20329 1.35834 0.16504 0.53026 0.3683 0.95008 0.77753 1.26037 1.22814 0.14862-0.18535 0.40144-0.33174 0.75701-0.43773 0.35474-0.10651 0.57782-0.094 0.66856 0.0376 0.0772 0.11239 0.0392 0.2772-0.11606 0.49422-0.44904 0.3926-0.48269 0.9067-0.10022 1.5428 0.38207 0.63586 0.52522 1.12491 0.42932 1.46827 0.0656 0.17565 0.12435 0.30105 0.17601 0.37592 0.28413 0.41326 0.87356 0.50574 1.76763 0.27767 0.41552-0.12009 0.82523-0.22872 1.22797-0.32602 0.40301-0.0978 0.68201-0.0343 0.83713 0.19118 0.15488 0.22571 0.19292 0.64238 0.11368 1.24974-0.1419 0.67861-0.23057 1.1129-0.26564 1.30313 0.28542 0.053 0.71479-0.0765 1.28878-0.38861 0.57398-0.31209 1.03127-0.46082 1.3728-0.44678zm7.13457 9.28164c-0.12451 0.14127-0.22391 0.23677-0.29946 0.28858-0.45035 0.30987-0.98212 0.26076-1.59486-0.14711-0.24907-0.16041-0.68448-0.55268-1.30707-1.17536 0.47765-0.1905 1.03888-0.27908 1.68379-0.26686 0.64506 0.0129 1.09032 0.19771 1.33605 0.554 0.15489 0.22572 0.21533 0.47383 0.18155 0.74675zm-3.22143 1.46934c0.16607 0.0802 0.30649 0.20423 0.42269 0.37345 0.14198 0.20629 0.19901 0.4298 0.17108 0.67054-0.0277 0.24034-0.11728 0.41282-0.26723 0.51596-0.24364 0.16816-0.53555 0.10603-0.87493-0.18585l-1.68022-2.08031c0.17236-0.31272 0.48321-0.33246 0.93279-0.0614 0.44981 0.2716 0.88162 0.52741 1.29588 0.76759zm-2.56496 3.50806-1.07714 0.24356c-0.29754-0.43186-0.52271-0.91977-0.67565-1.46444-0.15405-0.54475-0.18921-1.03869-0.10773-1.48199 0.15473 0.22505 0.48557 0.56479 0.99169 1.01871 0.29484 0.26756 0.48709 0.46709 0.57783 0.59876 0.21955 0.31893 0.31664 0.68059 0.29099 1.0854zm-4.57462-1.58181c0.15986 0.11109 0.28433 0.23289 0.37492 0.36383 0.24547 0.35673 0.41429 0.86322 0.50643 1.51949 0.0133 0.46092 0.037 0.77654 0.0707 0.94661 0.18936 0.39563 0.24662 0.88174 0.17312 1.45801-0.0735 0.57628-0.27014 0.97391-0.58903 1.19348-0.35671 0.24547-0.81294 0.18604-1.36844-0.17869zm2.84663-11.42034c-0.42828 0.10131-0.88693 0.27864-1.37661 0.53213-0.4891 0.25445-0.86523 0.47131-1.12763 0.65219-0.15044 0.10348-0.30059 0.20656-0.45103 0.31004-0.0371 0.0257-0.0874 0.074-0.14938 0.14508 0.01 0.21416 0.0851 0.42468 0.22746 0.63122 0.10305 0.15019 0.22531 0.28785 0.36641 0.41169 0.0259 0.0378 0.099 0.0842 0.22009 0.13896 0.12453 0.30173 0.29913 0.44435 0.52357 0.42823 0.22375-0.0159 0.48614-0.12704 0.78631-0.33386 0.24407-0.16788 0.41325-0.28412 0.50689-0.34853 0.26308-0.18106 0.53195-0.26225 0.80712-0.24439 0.27519 0.0178 0.47097 0.11171 0.58703 0.28022 0.20697 0.30086 0.0312 0.58721-0.52766 0.8613-0.22732-9e-3 -0.43516 0.0503-0.62269 0.17959-0.2253 0.15516-0.35045 0.38601-0.3741 0.6934-0.0238 0.30669 0.0482 0.58207 0.21646 0.82638 0.33579 0.48811 0.7757 0.54501 1.32017 0.16994 0.0442-0.0572 0.13966-0.13776 0.2901-0.24124 0.38263-0.20769 0.64886-0.36375 0.79929-0.46723 0.3006-0.20655 0.36628-0.43169 0.19841-0.67575-0.1782-0.54108-0.44653-1.13098-0.80377-1.77067-0.35682-0.63944-0.645-1.11862-0.86473-1.43824-0.12925-0.18748-0.25805-0.37479-0.38702-0.56274-0.039-0.0561-0.094-0.1151-0.16452-0.17797z" style="fill:#fcd116;stroke-width:.3;stroke:#fcd116"/>
  <path id="_261572752-8-95-6-1-8-8-3-3-2" class="fil0" d="m370.872 652.186c-0.17208 0.74498-0.12527 1.49338 0.14068 2.24478 0.0883 0.25057 0.23844 0.55168 0.45015 0.90438 1.95441 0.63941 4.00354 1.50508 6.14668 2.59586 0.68126 0.35608 1.52641 0.81819 2.53504 1.38584 2.0381 1.68389 4.19929 3.64773 6.48483 5.89034 0.74979 0.73828 1.68186 1.68558 2.79558 2.84224 0.12887 0.16586 0.59645 1.08469 1.40295 2.7556 0.34132 0.6961 0.67855 1.18213 1.01233 1.45767 0.088 0.0731 0.25201 0.17869 0.49168 0.31785 0.62845 0.31254 1.07343 0.31088 1.33508-6e-3 0.17403-0.2107 0.27196-0.54374 0.29325-0.99874-6e-3 -0.0645-8e-3 -0.16964-6e-3 -0.31532-1.12659-1.46301-2.53672-3.10112-4.23032-4.91484-0.55709-0.5784-1.26597-1.31261-2.12779-2.20189l4.21524-3.16797c0.486 0.5197 0.98621 1.09549 1.4993 1.72657 0.18167 0.20937 0.39462 0.48873 0.63799 0.83737 0.21765 0.4165 0.56403 0.82089 1.03779 1.21232 0.24646 0.20366 0.46471 0.3325 0.65618 0.38723 0.19089 0.0549 0.35269 3e-3 0.48318-0.15486 0.13056-0.1584 0.20472-0.43678 0.22384-0.83476 0.0189-0.39856-0.042-0.73674-0.18151-1.01486-0.13962-0.27813-0.35893-0.54025-0.65722-0.78723-0.14094-0.11619-0.56354-0.39128-1.26856-0.82624-0.27501-0.1682-0.52654-0.34681-0.75474-0.53523-0.17581-0.14511-0.33295-0.3041-0.47024-0.47736-0.13778-0.17337-0.23538-0.38669-0.29189-0.63974l3.9539-2.85269c0.31388-0.27278 0.44589-0.58462 0.39621-0.93594-0.0492-0.35126-0.2233-0.65073-0.52219-0.89776-0.43938-0.3626-0.89879-0.43176-1.37952-0.20875-0.75523 0.91389-1.62067 1.85411-2.59691 2.82103-0.32538 0.32216-0.74125 0.71788-1.24657 1.18694l-1.89764-1.56786c-0.12302-0.10157-0.28058-0.14324-0.47314-0.12519-0.0638 7e-3 -0.15127 0.0226-0.26208 0.0494-0.0306 0.35913 0.20671 0.81381 0.71248 1.36462 0.5053 0.55071 0.78806 0.96913 0.84733 1.25504-0.3986 0.23224-0.7505 0.488-1.05585 0.76772-0.30534 0.27976-0.62518 0.62227-0.95861 1.02581-0.31953 0.38648-0.5632 0.71725-0.73137 0.9923-0.16795 0.275-0.30683 0.51482-0.41701 0.7196l-6.16606-5.09539c0.39563-0.26413 0.72445-0.55426 0.98551-0.87059 0.30498-0.36855 0.5873-0.80061 0.84815-1.29442 0.67201-1.27774 1.08754-2.01328 1.24707-2.20658 0.21296 0.0284 0.41642 0.12197 0.60955 0.28209 0.50159 0.68043 1.0017 1.34492 1.50069 1.99404 0.38654 0.31907 0.68125 0.35603 0.88444 0.10944 0.17452-0.2106 0.21575-0.53814 0.12538-0.98272-0.0909-0.4447-0.29005-0.74974-0.59711-0.91447-0.0439-0.12534-0.30861-0.44033-0.79361-0.94415-0.4849-0.50431-0.62606-0.87957-0.42261-1.12507l1.27896-1.87031c0.15947-0.19277 0.29048-0.35111 0.39203-0.47413 0.50815-0.6151 0.87156-1.13495 1.08997-1.56058 0.21844-0.4251 0.18731-0.75418-0.0942-0.9863-0.1578-0.131-0.42436-0.21056-0.79944-0.23973-0.37509-0.0292-0.6945 0.0176-0.95768 0.13986-0.26413 0.12208-0.50472 0.31492-0.72217 0.57796-0.23257 0.28136-0.55231 0.91873-0.95931 1.91229-0.21159 0.50581-0.41144 0.87308-0.5999 1.10125-0.13116 0.15827-0.2874 0.29432-0.47069 0.40872-0.10275-0.0547-0.2503-0.16164-0.44392-0.3218-0.22816-0.18846-0.52447-0.45568-0.88893-0.80158-0.36503-0.34553-0.55623-0.52576-0.57367-0.54023-0.43878-0.36297-0.80903-0.59473-1.11013-0.69567-0.30101-0.10139-0.63825-0.15787-1.01185-0.17112-0.27825 0.47933-0.37811 0.87748-0.29946 1.19392 0.0792 0.31656 0.29388 0.61952 0.64546 0.91013 0.22817 0.18846 0.54698 0.39314 0.9563 0.61245 0.93875 0.51023 1.49635 0.83768 1.67172 0.98264 0.0881 0.0726 0.16683 0.13799 0.23706 0.19602 0.0412 0.0933 0.0706 0.1468 0.0885 0.16185-0.69652 0.84278-1.31535 1.9136-1.85567 3.21111-0.17044 0.42071-0.36816 0.98204-0.59262 1.68359-1.63411-1.35033-3.69626-2.7003-6.18798-4.04979-0.81891-0.43965-1.89778-0.97712-3.23658-1.61034zm-2.1674 9.38414c0.0554 0.57693 0.21647 1.07962 0.48341 1.50812 0.2676 0.42762 0.55932 0.77192 0.87555 1.03347 0.1051 0.087 0.22664 0.17257 0.36417 0.25667 0.0351 0.0284 0.0861 0.0567 0.15347 0.0826l0.6052 0.23379 7.68663-1.89645c0.12815-0.0119 0.22806-0.0621 0.30067-0.1502 0.058-0.0702 0.0871-0.19382 0.0867-0.37233-4e-3 -0.0315-0.0109-0.11181-0.0229-0.24007l-5.98772-0.1595c-0.55697 0.10169-1.34986 0.0675-2.37727-0.10155-1.02789-0.16923-1.75043-0.23401-2.16755-0.19445zm13.0754 5.7492 2.05438 7.81712c0.13527 0.22977 0.27083 0.29781 0.4076 0.20431 0.0291-0.0353 0.0854-0.12167 0.16969-0.2596-0.0331-1.71218-0.0197-3.44525 0.0402-5.1992 0.0203-0.63365 0.0583-1.4302 0.11259-2.39047 0.11941-0.61002 0.0125-1.05326-0.32114-1.32927-0.26303-0.21745-0.62166-0.28428-1.07526-0.20097-0.45314 0.0835-0.81076 0.2835-1.07172 0.59934-0.1886 0.22862-0.29449 0.48122-0.31634 0.75869z" style="fill:#fcd116;stroke-width:.3;stroke:#fcd116"/>
 </g>
</svg>
